<?xml version="1.0" encoding="UTF-8"?>
<svg xmlns="http://www.w3.org/2000/svg" xmlns:xlink="http://www.w3.org/1999/xlink" version="1.2" >
<font id="Bianco Serif Regular">
<font-face  font-family="Bianco Serif" units-per-em="1000" ascent="728" descent="-182" font-style="normal" font-weight="400" font-stretch="normal" cap-height="708" x-height="527" underline-position="-75" underline-thickness="50" />
<missing-glyph  horiz-adv-x="237" d="" />
<glyph glyph-name="CR" unicode="&#xd;" horiz-adv-x="250" d="" />
<glyph glyph-name="space" unicode="&#x20;" horiz-adv-x="244" d="" />
<glyph glyph-name="exclam" unicode="&#x21;" horiz-adv-x="202" d="M78 180 L124 180 C134 356 145 532 155 708 L47 708 C57 532 68 356 78 180 L78 180 Z M100 0 C136 0 166 28 166 64 C166 101 136 130 100 130 C64 130 36 101 36 64 C36 28 64 0 100 0 L100 0 Z " />
<glyph glyph-name="quotedbl" unicode="&#x22;" horiz-adv-x="402" d="M86 446 L148 446 C155 496 161 547 168 597 L168 708 L66 708 L66 597 C73 547 79 496 86 446 L86 446 Z M248 446 L310 446 C317 496 323 547 330 597 L330 708 L228 708 L228 597 C235 547 241 496 248 446 L248 446 Z " />
<glyph glyph-name="numbersign" unicode="&#x23;" horiz-adv-x="948" d="M164 -40 L240 -40 L311 180 L523 180 L452 -40 L528 -40 L599 180 L813 180 L837 256 L624 256 L693 468 L905 468 L930 544 L717 544 L780 737 L704 737 L641 544 L429 544 L492 737 L416 737 L353 544 L133 544 L108 468 L329 468 L260 256 L40 256 L16 180 L235 180 L164 -40 Z M336 256 L405 468 L617 468 L548 256 L336 256 Z " />
<glyph glyph-name="dollar" unicode="&#x24;" horiz-adv-x="597" d="M527 241 C527 443 175 361 175 505 C175 572 223 621 301 621 C364 621 425 590 443 475 L456 479 L492 611 C474 636 415 672 336 680 L336 850 L260 850 L260 679 C160 664 88 596 88 487 C88 289 439 373 439 217 C439 137 380 87 297 87 C225 87 147 125 131 265 L119 261 L71 126 C107 79 185 41 260 30 L260 -182 L336 -182 L336 28 C434 39 527 107 527 241 L527 241 Z " />
<glyph glyph-name="percent" unicode="&#x25;" horiz-adv-x="859" d="M231 341 C325 341 393 428 393 535 C393 641 325 728 231 728 C137 728 69 641 69 535 C69 428 137 341 231 341 L231 341 Z M78 -12 L181 -12 C360 235 557 481 776 728 L674 728 C495 481 297 235 78 -12 L78 -12 Z M243 388 C191 388 154 456 154 554 C154 630 182 682 220 682 C271 682 308 615 308 519 C308 442 281 388 243 388 L243 388 Z M629 -7 C723 -7 791 80 791 187 C791 293 723 380 629 380 C535 380 467 293 467 187 C467 80 535 -7 629 -7 L629 -7 Z M641 40 C589 40 552 108 552 206 C552 282 580 334 618 334 C669 334 706 267 706 171 C706 94 679 40 641 40 L641 40 Z " />
<glyph glyph-name="ampersand" unicode="&#x26;" horiz-adv-x="787" d="M281 -16 C359 -12 428 28 484 86 C530 25 583 0 626 0 C731 0 727 88 715 130 L664 179 C686 102 674 75 631 75 C610 75 587 97 540 156 C583 219 596 313 576 404 L526 452 C548 353 554 273 505 199 C462 251 402 326 359 378 C441 431 486 473 486 560 C486 649 411 711 328 711 C215 711 160 638 159 556 C158 505 180 457 233 395 C123 331 73 278 70 181 C66 65 152 -24 281 -16 L281 -16 Z M308 438 C265 487 241 513 242 559 C243 626 274 669 323 669 C371 669 403 633 403 555 C403 507 366 474 308 438 L308 438 Z M273 46 C204 51 157 117 160 183 C163 247 210 284 285 332 C328 280 395 197 452 126 C411 82 359 40 273 46 L273 46 Z " />
<glyph glyph-name="quotesingle" unicode="&#x27;" horiz-adv-x="229" d="M80 446 L142 446 C149 496 155 547 162 597 L162 708 L60 708 L60 597 C67 547 73 496 80 446 L80 446 Z " />
<glyph glyph-name="parenleft" unicode="&#x28;" horiz-adv-x="394" d="M319 -86 L319 -43 C111 50 108 656 319 751 L319 794 C-6 691 -6 17 319 -86 L319 -86 Z " />
<glyph glyph-name="parenright" unicode="&#x29;" horiz-adv-x="394" d="M75 -86 C400 17 400 691 75 794 L75 751 C286 656 283 50 75 -43 L75 -86 Z " />
<glyph glyph-name="asterisk" unicode="&#x2a;" horiz-adv-x="438" d="M153 423 L217 528 L284 423 L342 465 L258 557 L380 584 L358 654 L242 607 L254 728 L183 728 L193 606 L80 654 L57 584 L177 557 L96 465 L153 423 Z " />
<glyph glyph-name="plus" unicode="&#x2b;" horiz-adv-x="614" d="M265 116 L348 116 L348 312 L543 312 L543 394 L348 394 L348 589 L265 589 L265 394 L71 394 L71 312 L265 312 L265 116 Z " />
<glyph glyph-name="comma" unicode="&#x2c;" horiz-adv-x="202" d="M41 -115 C116 -101 166 -35 166 64 C166 101 136 130 100 130 C64 130 36 101 36 64 C36 25 66 0 104 0 C104 -51 78 -74 41 -85 L41 -115 Z " />
<glyph glyph-name="hyphen" unicode="&#x2d;" horiz-adv-x="434" d="M44 224 L390 224 L390 304 L44 304 L44 224 Z " />
<glyph glyph-name="period" unicode="&#x2e;" horiz-adv-x="202" d="M100 0 C136 0 166 28 166 64 C166 101 136 130 100 130 C64 130 36 101 36 64 C36 28 64 0 100 0 L100 0 Z " />
<glyph glyph-name="slash" unicode="&#x2f;" horiz-adv-x="324" d="M23 -12 L94 -12 L301 728 L231 728 C162 481 92 235 23 -12 L23 -12 Z " />
<glyph glyph-name="zero" unicode="0" horiz-adv-x="600" d="M301 -14 C458 -14 570 151 570 354 C570 557 458 722 301 722 C144 722 32 557 32 354 C32 151 144 -14 301 -14 L301 -14 Z M323 47 C204 47 120 190 120 393 C120 550 186 661 281 661 C398 661 482 521 482 322 C482 161 416 47 323 47 L323 47 Z " />
<glyph glyph-name="one" unicode="1" horiz-adv-x="600" d="M151 0 L465 0 L465 8 L352 60 L352 708 L351 708 L139 636 L139 623 L264 598 L264 60 L151 8 L151 0 Z " />
<glyph glyph-name="two" unicode="2" horiz-adv-x="600" d="M502 130 L436 73 L190 73 C293 194 472 388 472 551 C472 667 393 721 296 721 C220 721 145 686 87 632 L102 577 C152 621 203 660 263 660 C334 660 381 619 381 534 C381 407 241 233 101 60 L101 0 L495 0 L511 130 L502 130 Z " />
<glyph glyph-name="three" unicode="3" horiz-adv-x="600" d="M342 412 C420 448 464 503 464 572 C464 666 400 721 292 721 C221 721 150 684 90 626 L102 585 C154 629 208 661 252 661 C328 661 373 613 373 555 C373 491 310 446 210 413 L210 365 C333 396 406 336 406 235 C406 88 289 19 90 18 L90 -21 C354 -21 510 64 510 238 C510 335 450 400 342 412 L342 412 Z " />
<glyph glyph-name="four" unicode="4" horiz-adv-x="600" d="M247 0 L561 0 L561 8 L448 59 L448 181 L558 181 L558 254 L448 254 L448 708 L360 708 L36 216 L36 181 L360 181 L360 60 L247 8 L247 0 Z M124 254 L360 626 L360 254 L124 254 Z " />
<glyph glyph-name="five" unicode="5" horiz-adv-x="600" d="M172 467 L182 635 L405 635 L461 598 L470 598 L464 708 L130 708 L110 411 C296 435 406 377 406 255 C406 107 288 19 90 18 L90 -21 C354 -21 510 83 510 258 C510 408 385 484 172 467 L172 467 Z " />
<glyph glyph-name="six" unicode="6" horiz-adv-x="600" d="M310 461 C247 461 202 437 166 397 C197 525 291 621 454 686 L454 727 C224 659 67 512 67 278 C67 89 199 -7 311 -7 C479 -7 537 127 537 233 C537 361 439 461 310 461 L310 461 Z M324 39 C237 39 155 133 155 298 L155 299 C180 375 239 410 289 410 C374 410 453 308 453 202 C453 113 398 39 324 39 L324 39 Z " />
<glyph glyph-name="seven" unicode="7" horiz-adv-x="600" d="M102 708 L96 578 L105 578 L161 635 L417 635 C342 423 269 212 183 0 L283 0 C350 230 426 459 506 689 L506 708 L102 708 Z " />
<glyph glyph-name="eight" unicode="8" horiz-adv-x="600" d="M382 399 C450 422 483 484 483 547 C483 643 407 708 307 708 C205 708 127 640 127 540 C127 465 171 422 226 387 C142 366 67 293 67 193 C67 79 164 -4 297 -4 C437 -4 533 88 533 202 C533 303 459 355 382 399 L382 399 Z M293 661 C350 661 399 609 399 539 C399 487 374 452 336 425 C269 463 211 502 211 570 C211 621 243 661 293 661 L293 661 Z M322 43 C229 43 151 123 151 206 C151 288 208 334 274 360 C359 314 449 274 449 172 C449 90 391 43 322 43 L322 43 Z " />
<glyph glyph-name="nine" unicode="9" horiz-adv-x="600" d="M301 722 C126 722 65 588 65 482 C65 354 159 254 282 254 C341 254 386 273 422 306 C385 186 294 95 148 34 L148 -16 C375 57 531 215 531 467 C531 626 406 722 301 722 L301 722 Z M303 305 C223 305 149 402 149 501 C149 589 208 661 288 661 C368 661 442 587 442 447 C442 431 441 416 440 401 C411 336 353 305 303 305 L303 305 Z " />
<glyph glyph-name="colon" unicode="&#x3a;" horiz-adv-x="202" d="M100 386 C136 386 166 414 166 450 C166 487 136 516 100 516 C64 516 36 487 36 450 C36 414 64 386 100 386 L100 386 Z M100 0 C136 0 166 28 166 64 C166 101 136 130 100 130 C64 130 36 101 36 64 C36 28 64 0 100 0 L100 0 Z " />
<glyph glyph-name="semicolon" unicode="&#x3b;" horiz-adv-x="202" d="M100 386 C136 386 166 414 166 450 C166 487 136 516 100 516 C64 516 36 487 36 450 C36 414 64 386 100 386 L100 386 Z M41 -115 C116 -101 166 -35 166 64 C166 101 136 130 100 130 C64 130 36 101 36 64 C36 25 66 0 104 0 C104 -51 78 -74 41 -85 L41 -115 Z " />
<glyph glyph-name="less" unicode="&#x3c;" horiz-adv-x="614" d="M544 110 L544 198 C419 250 293 302 168 354 L544 508 L544 595 C386 528 228 462 70 395 L70 313 C228 245 386 178 544 110 L544 110 Z " />
<glyph glyph-name="equal" unicode="&#x3d;" horiz-adv-x="614" d="M71 421 L543 421 L543 503 L71 503 L71 421 Z M71 204 L543 204 L543 286 L71 286 L71 204 Z " />
<glyph glyph-name="greater" unicode="&#x3e;" horiz-adv-x="614" d="M70 110 C228 178 386 245 544 313 L544 395 C386 462 228 528 70 595 L70 508 C195 457 321 405 446 354 L70 198 L70 110 Z " />
<glyph glyph-name="question" unicode="&#x3f;" horiz-adv-x="499" d="M199 200 L253 200 C238 383 440 364 442 536 C444 650 353 722 234 722 C67 722 -24 552 140 437 L169 445 C71 543 136 642 230 642 C293 642 346 611 349 537 C354 401 172 439 199 200 L199 200 Z M230 0 C266 0 296 28 296 64 C296 101 266 130 230 130 C194 130 166 101 166 64 C166 28 194 0 230 0 L230 0 Z " />
<glyph glyph-name="at" unicode="&#x40;" horiz-adv-x="964" d="M433 710 C306 710 193 667 110 596 L110 492 C177 586 311 649 453 649 C663 649 794 512 807 296 C820 80 715 -140 484 -136 C295 -132 156 18 156 201 C156 403 325 479 431 479 C521 479 559 424 565 361 L446 316 C326 271 238 228 238 132 C238 51 302 -8 396 -8 C475 -8 541 33 581 116 L587 116 L565 -1 L697 -1 L654 75 L654 368 C654 453 591 540 442 540 C242 540 69 382 69 173 C69 -43 253 -196 483 -196 C734 -196 893 -13 893 241 C893 524 697 710 433 710 L433 710 Z M416 53 C360 53 333 92 333 137 C333 204 395 232 451 254 L566 300 L566 192 C554 108 486 53 416 53 L416 53 Z " />
<glyph glyph-name="A" unicode="A" horiz-adv-x="708" d="M690 0 L620 75 L376 708 L271 708 L302 629 L89 76 L18 0 L178 0 L162 77 L211 208 L467 208 L519 76 L503 0 L690 0 Z M236 276 L336 544 L441 276 L236 276 Z " />
<glyph glyph-name="B" unicode="B" horiz-adv-x="584" d="M405 372 C464 398 504 446 504 521 C504 633 416 708 286 708 L55 708 L98 632 L98 76 L55 0 L300 0 C480 0 538 100 538 196 C538 280 493 343 405 372 L405 372 Z M186 641 L286 641 C360 641 410 588 410 516 C410 454 367 398 286 398 L186 398 L186 641 Z M300 57 L186 57 L186 330 L291 330 C407 330 442 252 442 190 C442 117 394 57 300 57 L300 57 Z " />
<glyph glyph-name="C" unicode="C" horiz-adv-x="683" d="M395 -14 C512 -14 590 38 636 83 L594 130 C561 89 506 47 421 47 C258 47 134 218 134 393 C134 564 253 661 370 661 C466 661 539 613 581 508 L591 508 L624 635 C564 689 487 722 395 722 C192 722 47 557 47 354 C47 151 192 -14 395 -14 L395 -14 Z " />
<glyph glyph-name="D" unicode="D" horiz-adv-x="687" d="M55 0 L313 0 C535 0 640 189 640 349 C640 562 491 708 313 708 L55 708 L98 632 L98 77 L55 0 Z M186 57 L186 641 L296 641 C590 641 682 57 303 57 L186 57 Z " />
<glyph glyph-name="E" unicode="E" horiz-adv-x="534" d="M55 0 L472 0 L485 99 L412 67 L186 67 L186 350 L369 350 L422 318 L442 450 L368 418 L186 418 L186 641 L413 641 L485 609 L472 708 L55 708 L98 632 L98 77 L55 0 Z " />
<glyph glyph-name="F" unicode="F" horiz-adv-x="528" d="M55 0 L229 0 L186 76 L186 350 L369 350 L422 318 L442 450 L368 418 L186 418 L186 641 L412 641 L485 609 L472 708 L55 708 L98 632 L98 76 L55 0 Z " />
<glyph glyph-name="G" unicode="G" horiz-adv-x="743" d="M395 -14 C586 -14 703 126 703 378 L370 378 L351 289 L606 307 C606 207 568 47 408 47 C246 47 134 213 134 383 C134 542 241 661 387 661 C489 661 573 613 621 508 L631 508 L664 634 C596 689 509 722 405 722 C196 722 47 557 47 354 C47 151 192 -14 395 -14 L395 -14 Z " />
<glyph glyph-name="H" unicode="H" horiz-adv-x="713" d="M55 0 L229 0 L186 76 L186 330 L527 330 L527 76 L484 0 L658 0 L615 76 L615 631 L658 708 L484 708 L527 632 L527 398 L186 398 L186 631 L229 708 L55 708 L98 632 L98 76 L55 0 Z " />
<glyph glyph-name="I" unicode="I" horiz-adv-x="284" d="M55 0 L229 0 L186 76 L186 631 L229 708 L55 708 L98 631 L98 76 L55 0 Z " />
<glyph glyph-name="J" unicode="J" horiz-adv-x="487" d="M211 -14 C318 -14 397 59 397 239 L397 632 L440 708 L266 708 L309 632 L309 181 C309 98 268 48 204 48 C136 48 104 105 104 181 L31 127 C31 59 103 -14 211 -14 L211 -14 Z " />
<glyph glyph-name="K" unicode="K" horiz-adv-x="650" d="M621 0 L537 75 L351 457 L489 632 L589 708 L404 708 L407 648 L186 358 L186 631 L229 708 L55 708 L98 631 L98 76 L55 0 L229 0 L186 76 L186 247 L292 381 L437 70 L435 0 L621 0 Z " />
<glyph glyph-name="L" unicode="L" horiz-adv-x="531" d="M55 0 L484 0 L497 99 L427 67 L186 67 L186 631 L229 708 L55 708 L98 631 L98 76 L55 0 Z " />
<glyph glyph-name="M" unicode="M" horiz-adv-x="784" d="M686 632 L729 708 L589 708 L395 265 L202 708 L55 708 L98 632 L98 76 L55 0 L215 0 L172 76 L172 552 L369 103 L401 103 L598 553 L598 76 L555 0 L729 0 L686 76 L686 632 Z " />
<glyph glyph-name="N" unicode="N" horiz-adv-x="703" d="M481 708 L534 632 L534 172 L197 708 L56 708 L99 632 L99 76 L56 0 L216 0 L173 77 L173 571 L559 -31 L608 0 L608 632 L651 708 L481 708 Z " />
<glyph glyph-name="O" unicode="O" horiz-adv-x="790" d="M395 -14 C598 -14 743 151 743 354 C743 557 598 722 395 722 C192 722 47 557 47 354 C47 151 192 -14 395 -14 L395 -14 Z M422 47 C258 47 134 217 134 393 C134 565 253 661 370 661 C518 661 656 508 656 322 C656 167 560 47 422 47 L422 47 Z " />
<glyph glyph-name="P" unicode="P" horiz-adv-x="547" d="M55 0 L229 0 L186 76 L186 284 L293 284 C435 284 507 388 507 497 C507 613 427 708 293 708 L55 708 L98 632 L98 76 L55 0 Z M186 341 L186 651 L293 651 C376 651 415 575 415 500 C415 419 374 341 293 341 L186 341 Z " />
<glyph glyph-name="Q" unicode="Q" horiz-adv-x="819" d="M786 -14 L661 112 C713 177 743 261 743 354 C743 557 598 722 395 722 C192 722 47 557 47 354 C47 151 192 -14 395 -14 C480 -14 554 15 613 63 L681 -14 L786 -14 Z M422 47 C258 47 134 217 134 393 C134 565 253 661 370 661 C518 661 656 508 656 322 C656 260 641 204 614 159 L504 270 L429 270 L573 108 C534 69 482 47 422 47 L422 47 Z " />
<glyph glyph-name="R" unicode="R" horiz-adv-x="620" d="M501 76 L384 339 C476 359 537 431 537 527 C537 633 453 708 333 708 L55 708 L98 632 L98 76 L55 0 L229 0 L186 76 L186 334 L293 334 L403 75 L418 0 L589 0 L501 76 Z M186 651 L333 651 C396 651 440 599 440 527 C440 447 396 391 333 391 L186 391 L186 651 Z " />
<glyph glyph-name="S" unicode="S" horiz-adv-x="544" d="M279 -14 C387 -14 500 53 500 201 C500 343 395 379 300 411 C221 438 148 463 148 545 C148 612 196 661 274 661 C337 661 398 630 416 515 L429 519 L465 651 C445 679 372 722 277 722 C155 722 61 652 61 527 C61 399 158 363 251 329 C333 299 412 270 412 177 C412 97 353 47 270 47 C198 47 120 85 104 225 L92 221 L44 86 C88 29 192 -14 279 -14 L279 -14 Z " />
<glyph glyph-name="T" unicode="T" horiz-adv-x="571" d="M199 0 L373 0 L330 76 L330 651 L464 651 L537 609 L524 708 L47 708 L34 609 L107 651 L242 651 L242 76 L199 0 Z " />
<glyph glyph-name="U" unicode="U" horiz-adv-x="670" d="M335 -14 C510 -14 580 100 580 203 L580 631 L623 708 L458 708 L501 631 L501 203 C501 81 408 47 344 47 C271 47 186 94 186 203 L186 631 L229 708 L46 708 L89 631 L89 216 C89 64 215 -14 335 -14 L335 -14 Z " />
<glyph glyph-name="V" unicode="V" horiz-adv-x="695" d="M496 708 L515 632 L355 132 L194 633 L214 708 L28 708 L95 632 L309 0 L385 0 L599 631 L667 708 L496 708 Z " />
<glyph glyph-name="W" unicode="W" horiz-adv-x="1015" d="M819 708 L840 632 L699 146 L580 632 L604 708 L429 708 L454 633 L334 143 L193 632 L214 708 L31 708 L97 632 L290 0 L368 0 L509 542 L650 0 L728 0 L921 632 L987 708 L819 708 Z " />
<glyph glyph-name="X" unicode="X" horiz-adv-x="714" d="M677 0 L588 76 L406 382 L555 633 L643 708 L445 708 L474 633 L362 447 L251 633 L280 708 L52 708 L141 633 L294 382 L128 76 L39 0 L245 0 L208 76 L340 315 L482 76 L453 0 L677 0 Z " />
<glyph glyph-name="Y" unicode="Y" horiz-adv-x="614" d="M500 626 L586 708 L414 708 L416 626 L313 425 L220 625 L222 708 L28 708 L115 626 L263 350 L263 77 L220 0 L394 0 L351 76 L351 350 L500 626 Z " />
<glyph glyph-name="Z" unicode="Z" horiz-adv-x="545" d="M391 57 L148 57 L490 649 L490 708 L72 708 L62 594 L158 641 L376 641 L43 59 L43 0 L490 0 L500 114 L391 57 Z " />
<glyph glyph-name="bracketleft" unicode="&#x5b;" horiz-adv-x="320" d="M83 -99 L277 -99 L277 -26 L171 -26 L171 743 L277 743 L277 816 L83 816 L83 -99 Z " />
<glyph glyph-name="backslash" unicode="&#x5c;" horiz-adv-x="324" d="M231 -12 L301 -12 L94 728 L23 728 L231 -12 Z " />
<glyph glyph-name="bracketright" unicode="&#x5d;" horiz-adv-x="320" d="M237 816 L43 816 L43 743 L149 743 L149 -26 L43 -26 L43 -99 L237 -99 L237 816 Z " />
<glyph glyph-name="asciicircum" unicode="&#x5e;" horiz-adv-x="499" d="M41 337 L132 337 L249 628 L369 337 L458 337 L285 728 L214 728 L41 337 Z " />
<glyph glyph-name="underscore" unicode="&#x5f;" horiz-adv-x="666" d="M42 -199 L624 -199 L624 -135 L42 -135 L42 -199 Z " />
<glyph glyph-name="grave" unicode="&#x60;" horiz-adv-x="47" d="M2 613 L47 613 L6 780 L-110 780 L2 613 Z " />
<glyph glyph-name="a" unicode="a" horiz-adv-x="522" d="M359 0 L491 0 L448 76 L448 369 C448 483 361 541 251 541 C178 541 102 511 56 468 L94 357 L105 358 C140 442 178 480 240 480 C308 480 360 431 360 344 L360 324 L240 297 C115 269 32 230 32 130 C32 52 95 -7 194 -7 C269 -7 337 37 375 117 L381 117 L359 0 Z M210 54 C154 54 127 93 127 136 C127 200 172 218 245 235 L360 263 L360 193 C348 109 280 54 210 54 L210 54 Z " />
<glyph glyph-name="b" unicode="b" horiz-adv-x="558" d="M301 541 C239 541 185 495 158 443 L158 756 L27 708 L70 632 L70 0 L201 0 L158 78 L158 94 C189 32 248 -8 313 -8 C435 -8 519 92 519 267 C519 446 431 541 301 541 L301 541 Z M304 54 C225 54 158 140 158 265 L158 273 C158 395 216 480 285 480 C384 480 428 377 428 251 C428 138 389 54 304 54 L304 54 Z " />
<glyph glyph-name="c" unicode="c" horiz-adv-x="491" d="M280 -7 C361 -7 414 36 454 89 L414 130 C383 98 338 77 297 77 C190 77 114 174 114 310 C114 417 166 480 253 480 C307 480 374 442 409 358 L420 357 L458 468 C412 511 361 541 280 541 C129 541 36 419 36 268 C36 116 129 -7 280 -7 L280 -7 Z " />
<glyph glyph-name="d" unicode="d" horiz-adv-x="566" d="M529 0 L486 78 L486 756 L355 708 L398 632 L398 444 C367 504 309 542 245 542 C123 542 39 442 39 267 C39 88 127 -7 257 -7 C318 -7 370 37 398 87 L398 0 L529 0 Z M273 54 C174 54 130 157 130 283 C130 396 169 480 254 480 C325 480 386 411 398 306 L398 223 C387 122 334 54 273 54 L273 54 Z " />
<glyph glyph-name="e" unicode="e" horiz-adv-x="503" d="M423 157 C400 110 340 77 280 77 C198 77 137 149 123 255 L464 303 C465 447 377 541 254 541 C127 541 36 419 36 267 C36 116 133 -7 269 -7 C346 -7 418 36 466 123 L423 157 Z M243 480 C308 480 358 425 365 349 L120 313 C125 421 189 480 243 480 L243 480 Z " />
<glyph glyph-name="f" unicode="f" horiz-adv-x="397" d="M78 0 L252 0 L209 73 L209 456 L370 456 L370 527 L209 527 L198 654 C194 699 210 737 254 737 C295 737 325 705 345 617 L358 615 L395 725 C377 768 320 798 262 798 C188 798 103 731 112 625 L121 527 L23 505 L23 456 L121 456 L121 73 L78 0 Z " />
<glyph glyph-name="g" unicode="g" horiz-adv-x="558" d="M359 527 L402 451 L402 440 C371 502 312 542 247 542 C125 542 41 442 41 267 C41 88 129 -7 259 -7 C321 -7 375 39 402 91 L402 20 C402 -97 332 -146 261 -146 C189 -146 114 -108 101 -48 L93 -46 L53 -143 C76 -175 165 -207 255 -207 C368 -207 490 -147 490 27 L490 527 L359 527 Z M275 54 C176 54 132 157 132 283 C132 396 171 480 256 480 C335 480 402 394 402 269 L402 261 C402 139 344 54 275 54 L275 54 Z " />
<glyph glyph-name="h" unicode="h" horiz-adv-x="584" d="M381 0 L555 0 L512 76 L512 317 C512 360 512 541 336 541 C246 541 194 494 166 449 L166 756 L35 708 L78 632 L78 77 L35 0 L209 0 L166 76 L166 326 C178 392 224 479 315 479 C424 479 424 354 424 330 L424 76 L381 0 Z " />
<glyph glyph-name="i" unicode="i" horiz-adv-x="247" d="M123 611 C159 611 189 639 189 675 C189 712 159 741 123 741 C87 741 59 712 59 675 C59 639 87 611 123 611 L123 611 Z M39 0 L213 0 L170 76 L170 527 L39 527 L82 454 L82 76 L39 0 Z " />
<glyph glyph-name="j" unicode="j" horiz-adv-x="243" d="M121 611 C157 611 187 639 187 675 C187 712 157 741 121 741 C85 741 57 712 57 675 C57 639 85 611 121 611 L121 611 Z M-13 -198 C93 -198 169 -129 169 -23 L169 527 L38 527 L81 456 L81 77 C81 -77 91 -128 -13 -134 L-13 -198 Z " />
<glyph glyph-name="k" unicode="k" horiz-adv-x="559" d="M538 0 L464 76 L328 350 L435 465 L516 527 L342 527 L334 465 L167 277 L167 756 L36 708 L79 632 L79 77 L36 0 L210 0 L167 76 L167 176 L266 283 L364 76 L357 0 L538 0 Z " />
<glyph glyph-name="l" unicode="l" horiz-adv-x="242" d="M35 0 L209 0 L166 76 L166 756 L35 708 L78 632 L78 77 L35 0 Z " />
<glyph glyph-name="m" unicode="m" horiz-adv-x="935" d="M732 0 L906 0 L863 76 L863 317 C863 360 863 541 687 541 C579 541 526 473 502 422 C484 481 441 541 340 541 C228 541 175 468 153 417 L147 417 L170 541 L37 497 L80 421 L80 76 L37 0 L211 0 L168 76 L168 313 C176 380 222 479 319 479 C428 479 428 354 428 330 L428 76 L385 0 L559 0 L516 76 L516 317 L516 320 C526 387 572 479 666 479 C775 479 775 354 775 330 L775 76 L732 0 Z " />
<glyph glyph-name="n" unicode="n" horiz-adv-x="588" d="M37 0 L211 0 L168 76 L168 313 C176 380 222 479 319 479 C428 479 428 354 428 330 L428 76 L385 0 L559 0 L516 76 L516 317 C516 360 516 541 340 541 C228 541 175 468 153 417 L147 417 L170 541 L37 497 L80 421 L80 76 L37 0 Z " />
<glyph glyph-name="o" unicode="o" horiz-adv-x="558" d="M279 -7 C421 -7 522 116 522 267 C522 419 421 541 279 541 C137 541 36 419 36 267 C36 116 137 -7 279 -7 L279 -7 Z M300 54 C202 54 120 177 120 301 C120 417 190 480 258 480 C356 480 438 358 438 234 C438 126 375 54 300 54 L300 54 Z " />
<glyph glyph-name="p" unicode="p" horiz-adv-x="580" d="M323 541 C248 541 186 474 167 412 L167 544 L36 496 L79 420 L79 -212 L210 -212 L167 -134 L167 128 C191 46 259 -8 335 -8 C457 -8 541 92 541 267 C541 446 453 541 323 541 L323 541 Z M326 54 C247 54 180 140 180 265 L180 273 C180 395 238 480 307 480 C406 480 450 377 450 251 C450 138 411 54 326 54 L326 54 Z " />
<glyph glyph-name="q" unicode="q" horiz-adv-x="563" d="M533 -163 L490 -87 L490 545 L359 545 L402 467 L402 435 C372 501 311 542 245 542 C123 542 39 442 39 267 C39 88 127 -7 257 -7 C321 -7 376 42 402 95 L402 -211 L533 -163 Z M400 261 C400 139 342 54 273 54 C174 54 130 157 130 283 C130 396 169 480 254 480 C333 480 400 394 400 269 L400 261 Z " />
<glyph glyph-name="r" unicode="r" horiz-adv-x="406" d="M37 0 L211 0 L168 76 L168 362 L245 415 C300 452 325 425 325 386 L374 386 L374 541 L334 541 L163 417 L157 417 L181 547 L37 497 L80 421 L80 76 L37 0 Z " />
<glyph glyph-name="s" unicode="s" horiz-adv-x="452" d="M227 -7 C323 -7 418 44 418 157 C418 342 136 286 136 406 C136 457 180 485 232 485 C277 485 342 452 353 383 L366 381 L405 484 C382 506 312 541 233 541 C150 541 47 496 47 390 C47 209 330 252 330 141 C330 82 280 49 223 49 C168 49 101 97 85 172 L74 173 L32 58 C62 28 140 -7 227 -7 L227 -7 Z " />
<glyph glyph-name="t" unicode="t" horiz-adv-x="398" d="M260 -7 C293 -7 329 3 364 26 L364 77 C340 61 315 54 292 54 C245 54 208 84 208 141 L208 456 L364 456 L364 527 L208 527 L208 722 L120 708 L120 527 L23 505 L23 456 L120 456 L120 132 C120 46 183 -7 260 -7 L260 -7 Z " />
<glyph glyph-name="u" unicode="u" horiz-adv-x="587" d="M242 -7 C362 -7 410 74 437 147 L443 147 L422 0 L553 0 L510 76 L510 527 L379 527 L422 451 L422 251 C411 161 368 55 264 55 C162 55 162 158 162 174 L162 527 L31 527 L74 451 L74 187 C74 153 74 -7 242 -7 L242 -7 Z " />
<glyph glyph-name="v" unicode="v" horiz-adv-x="554" d="M377 527 L394 451 L289 82 L175 451 L192 527 L19 527 L79 451 L228 0 L326 0 L475 451 L535 527 L377 527 Z " />
<glyph glyph-name="w" unicode="w" horiz-adv-x="889" d="M712 527 L729 451 L623 81 L500 451 L530 527 L374 527 L404 451 L289 81 L175 451 L192 527 L19 527 L79 451 L228 0 L326 0 L445 336 L563 0 L661 0 L810 451 L870 527 L712 527 Z " />
<glyph glyph-name="x" unicode="x" horiz-adv-x="586" d="M565 0 L352 283 L454 452 L538 527 L340 527 L373 452 L306 337 L226 452 L262 527 L58 527 L236 295 L115 76 L20 0 L246 0 L195 76 L284 240 L399 76 L365 0 L565 0 Z " />
<glyph glyph-name="y" unicode="y" horiz-adv-x="554" d="M377 527 L394 451 L289 82 L175 451 L192 527 L19 527 L79 451 L228 0 L248 0 L190 -129 L110 -205 L294 -205 L270 -129 L318 0 L326 0 L475 451 L535 527 L377 527 Z " />
<glyph glyph-name="z" unicode="z" horiz-adv-x="472" d="M433 527 L46 527 L46 413 L134 458 L314 458 L37 53 L37 0 L433 0 L433 114 L344 69 L149 69 L433 478 L433 527 Z " />
<glyph glyph-name="braceleft" unicode="&#x7b;" horiz-adv-x="348" d="M307 -120 L307 -62 C227 -62 214 -49 214 44 C214 245 222 304 123 349 C222 394 214 453 214 654 C214 747 227 760 307 760 L307 818 C144 818 131 798 131 560 C131 446 126 376 35 376 L35 322 C126 322 131 252 131 138 C131 -100 144 -120 307 -120 L307 -120 Z " />
<glyph glyph-name="bar" unicode="&#x7c;" horiz-adv-x="288" d="M106 -210 L182 -210 L182 728 L106 728 L106 -210 Z " />
<glyph glyph-name="braceright" unicode="&#x7d;" horiz-adv-x="348" d="M41 -120 C204 -120 217 -100 217 138 C217 252 222 322 313 322 L313 376 C222 376 217 446 217 560 C217 798 204 818 41 818 L41 760 C121 760 134 747 134 654 C134 453 126 394 225 349 C126 304 134 245 134 44 C134 -49 121 -62 41 -62 L41 -120 Z " />
<glyph glyph-name="asciitilde" unicode="&#x7e;" horiz-adv-x="614" d="M57 272 C111 324 142 338 185 338 C267 338 333 273 422 273 C475 273 515 289 557 329 L557 432 C522 393 473 365 431 365 C352 365 282 431 193 431 C137 431 92 411 57 372 L57 272 Z " />
<glyph glyph-name="exclamdown" unicode="&#xa1;" horiz-adv-x="202" d="M100 527 C64 527 36 499 36 463 C36 426 64 397 100 397 C136 397 166 426 166 463 C166 499 136 527 100 527 L100 527 Z M78 347 C68 171 57 -5 47 -181 L155 -181 C145 -5 134 171 124 347 L78 347 Z " />
<glyph glyph-name="cent" unicode="&#xa2;" horiz-adv-x="491" d="M297 77 C190 77 114 174 114 310 C114 417 166 480 253 480 C307 480 374 442 409 358 L420 357 L458 468 C418 506 374 533 309 540 L309 728 L233 728 L233 537 C110 514 36 403 36 268 C36 132 110 20 233 -3 L233 -182 L309 -182 L309 -5 C374 4 419 43 454 89 L414 130 C383 98 338 77 297 77 L297 77 Z " />
<glyph glyph-name="sterling" unicode="&#xa3;" horiz-adv-x="576" d="M407 67 L209 67 C263 132 282 191 282 247 C282 261 281 274 280 286 L430 286 L430 354 L268 354 C253 414 231 462 231 540 C231 627 282 661 334 661 C384 661 425 630 446 515 L459 519 L495 651 C473 679 417 722 337 722 C243 722 143 668 143 528 C143 452 160 402 173 354 L84 354 L84 286 L189 286 C191 273 192 259 192 245 C192 171 162 112 70 35 L82 0 L464 0 L497 179 L407 67 Z " />
<glyph glyph-name="currency" unicode="&#xa4;" horiz-adv-x="636" d="M134 115 L202 183 C236 159 275 147 318 147 C360 147 399 159 434 183 L501 115 L558 173 L490 239 C513 275 525 313 525 354 C525 395 513 433 490 469 L558 536 L501 594 L434 526 C399 549 360 561 318 561 C275 561 236 549 202 526 L134 594 L78 536 L146 469 C122 433 111 395 111 354 C111 313 122 275 146 239 L78 173 L134 115 Z M317 228 C247 228 191 285 191 354 C191 422 247 481 317 481 C388 481 444 424 444 354 C444 284 386 228 317 228 L317 228 Z " />
<glyph glyph-name="yen" unicode="&#xa5;" horiz-adv-x="694" d="M540 626 L626 708 L454 708 L456 626 L353 425 L260 625 L262 708 L68 708 L155 626 L264 423 L111 423 L111 363 L296 363 L303 350 L303 264 L111 264 L111 205 L303 205 L303 77 L260 0 L434 0 L391 76 L391 205 L583 205 L583 264 L391 264 L391 350 L398 363 L583 363 L583 423 L430 423 L540 626 Z " />
<glyph glyph-name="brokenbar" unicode="&#xa6;" horiz-adv-x="288" d="M106 342 L182 342 L182 728 L106 728 L106 342 Z M106 -210 L182 -210 L182 176 L106 176 L106 -210 Z " />
<glyph glyph-name="section" unicode="&#xa7;" horiz-adv-x="577" d="M317 -107 C421 -98 517 -35 517 92 C517 138 506 174 487 201 C506 228 517 261 517 301 C517 562 165 471 165 648 C165 704 218 751 279 753 C350 754 414 719 433 614 L446 618 L482 709 C462 779 389 820 301 820 C173 820 78 751 78 634 C78 586 91 551 113 524 C91 497 78 464 78 426 C78 182 429 263 429 79 C429 3 360 -44 287 -44 C215 -44 137 -8 121 126 L109 122 L71 18 C99 -70 212 -116 317 -107 L317 -107 Z M425 259 C321 322 165 321 165 439 C165 451 167 463 172 475 C276 415 429 409 429 288 C429 278 428 268 425 259 L425 259 Z " />
<glyph glyph-name="dieresis" unicode="&#xa8;" horiz-adv-x="298" d="M56 644 C87 644 114 669 114 700 C114 733 87 758 56 758 C24 758 0 733 0 700 C0 669 24 644 56 644 L56 644 Z M240 644 C271 644 298 669 298 700 C298 733 271 758 240 758 C208 758 184 733 184 700 C184 669 208 644 240 644 L240 644 Z " />
<glyph glyph-name="copyright" unicode="&#xa9;" horiz-adv-x="850" d="M425 -7 C627 -7 779 155 779 352 C779 550 626 711 425 711 C224 711 71 549 71 352 C71 155 224 -7 425 -7 L425 -7 Z M425 52 C267 52 147 187 147 352 C147 517 268 653 425 653 C582 653 703 517 703 352 C703 186 582 52 425 52 L425 52 Z M434 140 C499 140 544 173 576 215 L539 252 C515 226 482 211 452 211 C371 211 314 286 314 388 C314 468 353 518 417 518 C458 518 508 488 533 426 L543 425 L578 517 C540 551 499 572 434 572 C312 572 237 475 237 357 C237 237 312 140 434 140 L434 140 Z " />
<glyph glyph-name="ordfeminine" unicode="&#xaa;" horiz-adv-x="333" d="M220 403 L315 403 L288 454 L288 616 C288 690 235 728 158 728 C113 728 63 710 33 684 L56 613 L65 613 C85 660 111 684 150 684 C187 684 216 657 216 608 L216 599 L146 584 C80 570 19 547 19 481 C19 435 57 399 117 399 C160 399 204 421 229 473 L232 473 L220 403 Z M140 447 C110 447 95 468 95 492 C95 523 117 535 152 543 L216 558 L216 507 C204 470 175 447 140 447 L140 447 Z " />
<glyph glyph-name="guillemotleft" unicode="&#xab;" horiz-adv-x="686" d="M350 -2 L350 88 L138 266 L350 442 L350 531 L75 303 L75 228 L350 -2 Z M611 -2 L611 88 L398 266 L611 442 L611 531 L290 266 L611 -2 Z " />
<glyph glyph-name="logicalnot" unicode="&#xac;" horiz-adv-x="466" d="M388 114 L451 114 L451 294 L15 294 L15 224 L388 224 L388 114 Z " />
<glyph glyph-name="uni00AD" unicode="&#xad;" horiz-adv-x="524" d="M44 224 L480 224 L480 300 L44 300 L44 224 Z " />
<glyph glyph-name="registered" unicode="&#xae;" horiz-adv-x="850" d="M425 711 C224 711 71 549 71 352 C71 155 224 -7 425 -7 C627 -7 779 155 779 352 C779 550 626 711 425 711 L425 711 Z M425 52 C267 52 147 187 147 352 C147 517 268 653 425 653 C582 653 703 517 703 352 C703 186 582 52 425 52 L425 52 Z M482 341 C534 354 568 392 568 446 C568 509 517 551 447 551 L283 551 L305 509 L305 197 L283 154 L388 154 L366 197 L366 336 L421 336 L480 196 L489 154 L595 154 L548 197 L482 341 Z M366 516 L442 516 C479 516 501 485 501 446 C501 403 478 371 442 371 L366 371 L366 516 Z " />
<glyph glyph-name="macron" unicode="&#xaf;" horiz-adv-x="546" d="M100 624 L446 624 L446 694 L100 694 L100 624 Z " />
<glyph glyph-name="degree" unicode="&#xb0;" horiz-adv-x="415" d="M208 457 C284 457 343 521 343 593 C343 669 278 728 208 728 C130 728 72 663 72 593 C72 516 134 457 208 457 L208 457 Z M208 510 C161 510 126 551 126 593 C126 638 162 675 208 675 C253 675 290 638 290 593 C290 548 252 510 208 510 L208 510 Z " />
<glyph glyph-name="plusminus" unicode="&#xb1;" horiz-adv-x="579" d="M248 127 L331 127 L331 324 L526 324 L526 405 L331 405 L331 600 L248 600 L248 405 L53 405 L53 324 L248 324 L248 127 Z M53 0 L526 0 L526 82 L53 82 L53 0 Z " />
<glyph glyph-name="acute" unicode="&#xb4;" horiz-adv-x="47" d="M45 613 L157 780 L41 780 L0 613 L45 613 Z " />
<glyph glyph-name="paragraph" unicode="&#xb6;" horiz-adv-x="663" d="M261 -199 L341 -199 L341 631 L450 631 L450 -199 L533 -199 L533 631 L604 631 L604 716 L294 716 C141 716 63 632 63 510 C63 395 138 316 261 312 L261 -199 Z " />
<glyph glyph-name="periodcentered" unicode="&#xb7;" horiz-adv-x="196" d="M101 279 C137 279 167 307 167 343 C167 380 137 409 101 409 C65 409 37 380 37 343 C37 307 65 279 101 279 L101 279 Z " />
<glyph glyph-name="cedilla" unicode="&#xb8;" horiz-adv-x="363" d="M67 -200 C138 -212 279 -209 279 -113 C279 -79 251 -49 195 -41 L211 11 L146 11 L120 -75 C184 -79 197 -88 197 -108 C197 -131 170 -145 119 -145 C109 -145 94 -144 73 -143 L67 -200 Z " />
<glyph glyph-name="ordmasculine" unicode="&#xba;" horiz-adv-x="348" d="M174 399 C266 399 327 473 327 563 C327 654 266 728 174 728 C82 728 21 654 21 563 C21 473 82 399 174 399 L174 399 Z M185 442 C133 442 90 509 90 584 C90 646 125 684 162 684 C215 684 258 617 258 543 C258 483 225 442 185 442 L185 442 Z " />
<glyph glyph-name="guillemotright" unicode="&#xbb;" horiz-adv-x="686" d="M75 -2 L396 266 L75 531 L75 442 L288 266 L75 88 L75 -2 Z M336 -2 L611 228 L611 303 L336 531 L336 442 L548 266 L336 88 L336 -2 Z " />
<glyph glyph-name="questiondown" unicode="&#xbf;" horiz-adv-x="499" d="M266 527 C230 527 200 499 200 463 C200 426 230 397 266 397 C302 397 330 426 330 463 C330 499 302 527 266 527 L266 527 Z M297 327 L243 327 C258 144 56 163 54 -9 C52 -123 143 -195 262 -195 C429 -195 520 -25 356 90 L327 82 C425 -16 360 -115 266 -115 C203 -115 150 -84 147 -10 C142 126 324 88 297 327 L297 327 Z " />
<glyph glyph-name="Agrave" unicode="&#xc0;" horiz-adv-x="708" d="M368 752 L327 844 L211 844 L323 752 L368 752 Z M690 0 L620 75 L376 708 L271 708 L302 629 L89 76 L18 0 L178 0 L162 77 L211 208 L467 208 L519 76 L503 0 L690 0 Z M236 276 L336 544 L441 276 L236 276 Z " />
<glyph glyph-name="Aacute" unicode="&#xc1;" horiz-adv-x="708" d="M479 844 L363 844 L322 752 L367 752 L479 844 Z M690 0 L620 75 L376 708 L271 708 L302 629 L89 76 L18 0 L178 0 L162 77 L211 208 L467 208 L519 76 L503 0 L690 0 Z M236 276 L336 544 L441 276 L236 276 Z " />
<glyph glyph-name="Acircumflex" unicode="&#xc2;" horiz-adv-x="708" d="M343 830 L399 752 L498 752 L375 852 L308 852 L189 752 L290 752 L343 830 Z M690 0 L620 75 L376 708 L271 708 L302 629 L89 76 L18 0 L178 0 L162 77 L211 208 L467 208 L519 76 L503 0 L690 0 Z M236 276 L336 544 L441 276 L236 276 Z " />
<glyph glyph-name="Atilde" unicode="&#xc3;" horiz-adv-x="708" d="M404 747 C436 747 457 768 470 834 L432 834 C422 746 356 842 293 842 C256 842 231 817 218 755 L258 755 C268 840 323 747 404 747 L404 747 Z M690 0 L620 75 L376 708 L271 708 L302 629 L89 76 L18 0 L178 0 L162 77 L211 208 L467 208 L519 76 L503 0 L690 0 Z M236 276 L336 544 L441 276 L236 276 Z " />
<glyph glyph-name="Adieresis" unicode="&#xc4;" horiz-adv-x="708" d="M264 755 C291 755 313 775 313 802 C313 830 291 851 264 851 C237 851 217 830 217 802 C217 775 237 755 264 755 L264 755 Z M420 755 C447 755 470 775 470 802 C470 830 447 851 420 851 C394 851 373 830 373 802 C373 775 394 755 420 755 L420 755 Z M690 0 L620 75 L376 708 L271 708 L302 629 L89 76 L18 0 L178 0 L162 77 L211 208 L467 208 L519 76 L503 0 L690 0 Z M236 276 L336 544 L441 276 L236 276 Z " />
<glyph glyph-name="Aring" unicode="&#xc5;" horiz-adv-x="708" d="M690 0 L620 75 L390 671 C415 687 431 715 431 746 C431 794 391 836 343 836 C295 836 255 796 255 748 C255 722 265 700 281 683 L302 629 L89 76 L18 0 L178 0 L162 77 L211 208 L467 208 L519 76 L503 0 L690 0 Z M344 786 C364 786 382 767 382 747 C382 726 363 708 344 708 C321 708 306 725 306 748 C306 767 322 786 344 786 L344 786 Z M236 276 L336 544 L441 276 L236 276 Z " />
<glyph glyph-name="AE" unicode="&#xc6;" horiz-adv-x="916" d="M568 67 L568 350 L751 350 L804 318 L824 450 L750 418 L568 418 L568 641 L795 641 L867 609 L854 708 L437 708 L466 658 L107 76 L18 0 L193 0 L195 77 L274 208 L480 208 L480 77 L437 0 L854 0 L867 99 L794 67 L568 67 Z M315 276 L480 549 L480 276 L315 276 Z " />
<glyph glyph-name="Ccedilla" unicode="&#xc7;" horiz-adv-x="683" d="M415 -41 L424 -13 C525 -5 594 42 636 83 L594 130 C561 89 506 47 421 47 C258 47 134 218 134 393 C134 564 253 661 370 661 C466 661 539 613 581 508 L591 508 L624 635 C564 689 487 722 395 722 C192 722 47 557 47 354 C47 163 175 6 359 -12 L340 -75 C404 -79 417 -88 417 -108 C417 -131 390 -145 339 -145 C329 -145 314 -144 293 -143 L287 -200 C358 -212 499 -209 499 -113 C499 -79 471 -49 415 -41 L415 -41 Z " />
<glyph glyph-name="Egrave" unicode="&#xc8;" horiz-adv-x="534" d="M257 752 L302 752 L261 844 L145 844 L257 752 Z M55 0 L472 0 L485 99 L412 67 L186 67 L186 350 L369 350 L422 318 L442 450 L368 418 L186 418 L186 641 L413 641 L485 609 L472 708 L55 708 L98 632 L98 77 L55 0 Z " />
<glyph glyph-name="Eacute" unicode="&#xc9;" horiz-adv-x="534" d="M301 752 L413 844 L297 844 L256 752 L301 752 Z M55 0 L472 0 L485 99 L412 67 L186 67 L186 350 L369 350 L422 318 L442 450 L368 418 L186 418 L186 641 L413 641 L485 609 L472 708 L55 708 L98 632 L98 77 L55 0 Z " />
<glyph glyph-name="Ecircumflex" unicode="&#xca;" horiz-adv-x="534" d="M123 752 L224 752 L277 830 L333 752 L432 752 L309 852 L242 852 L123 752 Z M55 0 L472 0 L485 99 L412 67 L186 67 L186 350 L369 350 L422 318 L442 450 L368 418 L186 418 L186 641 L413 641 L485 609 L472 708 L55 708 L98 632 L98 77 L55 0 Z " />
<glyph glyph-name="Edieresis" unicode="&#xcb;" horiz-adv-x="534" d="M198 755 C225 755 247 775 247 802 C247 830 225 851 198 851 C171 851 151 830 151 802 C151 775 171 755 198 755 L198 755 Z M354 755 C381 755 404 775 404 802 C404 830 381 851 354 851 C328 851 307 830 307 802 C307 775 328 755 354 755 L354 755 Z M55 0 L472 0 L485 99 L412 67 L186 67 L186 350 L369 350 L422 318 L442 450 L368 418 L186 418 L186 641 L413 641 L485 609 L472 708 L55 708 L98 632 L98 77 L55 0 Z " />
<glyph glyph-name="Igrave" unicode="&#xcc;" horiz-adv-x="284" d="M121 752 L166 752 L125 844 L9 844 L121 752 Z M55 0 L229 0 L186 76 L186 631 L229 708 L55 708 L98 631 L98 76 L55 0 Z " />
<glyph glyph-name="Iacute" unicode="&#xcd;" horiz-adv-x="284" d="M165 752 L277 844 L161 844 L120 752 L165 752 Z M55 0 L229 0 L186 76 L186 631 L229 708 L55 708 L98 631 L98 76 L55 0 Z " />
<glyph glyph-name="Icircumflex" unicode="&#xce;" horiz-adv-x="284" d="M-13 752 L88 752 L141 830 L197 752 L296 752 L173 852 L106 852 L-13 752 Z M55 0 L229 0 L186 76 L186 631 L229 708 L55 708 L98 631 L98 76 L55 0 Z " />
<glyph glyph-name="Idieresis" unicode="&#xcf;" horiz-adv-x="284" d="M62 755 C89 755 111 775 111 802 C111 830 89 851 62 851 C35 851 15 830 15 802 C15 775 35 755 62 755 L62 755 Z M218 755 C245 755 268 775 268 802 C268 830 245 851 218 851 C192 851 171 830 171 802 C171 775 192 755 218 755 L218 755 Z M55 0 L229 0 L186 76 L186 631 L229 708 L55 708 L98 631 L98 76 L55 0 Z " />
<glyph glyph-name="Eth" unicode="&#xd0;" horiz-adv-x="687" d="M313 708 L55 708 L98 632 L98 392 L5 392 L5 316 L98 316 L98 77 L55 0 L313 0 C535 0 640 189 640 349 C640 562 491 708 313 708 L313 708 Z M303 57 L186 57 L186 316 L308 316 L308 392 L186 392 L186 641 L296 641 C590 641 682 57 303 57 L303 57 Z " />
<glyph glyph-name="Ntilde" unicode="&#xd1;" horiz-adv-x="703" d="M401 747 C433 747 454 768 467 834 L429 834 C419 746 353 842 290 842 C253 842 228 817 215 755 L255 755 C265 840 320 747 401 747 L401 747 Z M481 708 L534 632 L534 172 L197 708 L56 708 L99 632 L99 76 L56 0 L216 0 L173 77 L173 571 L559 -31 L608 0 L608 632 L651 708 L481 708 Z " />
<glyph glyph-name="Ograve" unicode="&#xd2;" horiz-adv-x="790" d="M375 752 L420 752 L379 844 L263 844 L375 752 Z M395 -14 C598 -14 743 151 743 354 C743 557 598 722 395 722 C192 722 47 557 47 354 C47 151 192 -14 395 -14 L395 -14 Z M422 47 C258 47 134 217 134 393 C134 565 253 661 370 661 C518 661 656 508 656 322 C656 167 560 47 422 47 L422 47 Z " />
<glyph glyph-name="Oacute" unicode="&#xd3;" horiz-adv-x="790" d="M419 752 L531 844 L415 844 L374 752 L419 752 Z M395 -14 C598 -14 743 151 743 354 C743 557 598 722 395 722 C192 722 47 557 47 354 C47 151 192 -14 395 -14 L395 -14 Z M422 47 C258 47 134 217 134 393 C134 565 253 661 370 661 C518 661 656 508 656 322 C656 167 560 47 422 47 L422 47 Z " />
<glyph glyph-name="Ocircumflex" unicode="&#xd4;" horiz-adv-x="790" d="M241 752 L342 752 L395 830 L451 752 L550 752 L427 852 L360 852 L241 752 Z M395 -14 C598 -14 743 151 743 354 C743 557 598 722 395 722 C192 722 47 557 47 354 C47 151 192 -14 395 -14 L395 -14 Z M422 47 C258 47 134 217 134 393 C134 565 253 661 370 661 C518 661 656 508 656 322 C656 167 560 47 422 47 L422 47 Z " />
<glyph glyph-name="Otilde" unicode="&#xd5;" horiz-adv-x="790" d="M456 747 C488 747 509 768 522 834 L484 834 C474 746 408 842 345 842 C308 842 283 817 270 755 L310 755 C320 840 375 747 456 747 L456 747 Z M395 -14 C598 -14 743 151 743 354 C743 557 598 722 395 722 C192 722 47 557 47 354 C47 151 192 -14 395 -14 L395 -14 Z M422 47 C258 47 134 217 134 393 C134 565 253 661 370 661 C518 661 656 508 656 322 C656 167 560 47 422 47 L422 47 Z " />
<glyph glyph-name="Odieresis" unicode="&#xd6;" horiz-adv-x="790" d="M316 755 C343 755 365 775 365 802 C365 830 343 851 316 851 C289 851 269 830 269 802 C269 775 289 755 316 755 L316 755 Z M472 755 C499 755 522 775 522 802 C522 830 499 851 472 851 C446 851 425 830 425 802 C425 775 446 755 472 755 L472 755 Z M395 -14 C598 -14 743 151 743 354 C743 557 598 722 395 722 C192 722 47 557 47 354 C47 151 192 -14 395 -14 L395 -14 Z M422 47 C258 47 134 217 134 393 C134 565 253 661 370 661 C518 661 656 508 656 322 C656 167 560 47 422 47 L422 47 Z " />
<glyph glyph-name="multiply" unicode="&#xd7;" horiz-adv-x="614" d="M153 141 L307 294 L460 141 L519 201 L366 354 L518 507 L460 566 L307 413 L154 566 L94 507 L247 354 L94 200 L153 141 Z " />
<glyph glyph-name="Oslash" unicode="&#xd8;" horiz-adv-x="790" d="M603 652 L641 724 L541 724 L527 697 C487 713 442 722 395 722 C192 722 47 557 47 354 C47 231 100 122 188 55 L150 -16 L251 -16 L265 11 C305 -5 348 -14 395 -14 C598 -14 743 151 743 354 C743 477 690 586 603 652 L603 652 Z M134 393 C134 565 253 661 370 661 C412 661 453 649 490 627 L231 137 C171 203 134 297 134 393 L134 393 Z M422 47 C378 47 338 59 302 80 L560 571 C618 508 656 420 656 322 C656 167 560 47 422 47 L422 47 Z " />
<glyph glyph-name="Ugrave" unicode="&#xd9;" horiz-adv-x="670" d="M324 752 L369 752 L328 844 L212 844 L324 752 Z M335 -14 C510 -14 580 100 580 203 L580 631 L623 708 L458 708 L501 631 L501 203 C501 81 408 47 344 47 C271 47 186 94 186 203 L186 631 L229 708 L46 708 L89 631 L89 216 C89 64 215 -14 335 -14 L335 -14 Z " />
<glyph glyph-name="Uacute" unicode="&#xda;" horiz-adv-x="670" d="M368 752 L480 844 L364 844 L323 752 L368 752 Z M335 -14 C510 -14 580 100 580 203 L580 631 L623 708 L458 708 L501 631 L501 203 C501 81 408 47 344 47 C271 47 186 94 186 203 L186 631 L229 708 L46 708 L89 631 L89 216 C89 64 215 -14 335 -14 L335 -14 Z " />
<glyph glyph-name="Ucircumflex" unicode="&#xdb;" horiz-adv-x="670" d="M190 752 L291 752 L344 830 L400 752 L499 752 L376 852 L309 852 L190 752 Z M335 -14 C510 -14 580 100 580 203 L580 631 L623 708 L458 708 L501 631 L501 203 C501 81 408 47 344 47 C271 47 186 94 186 203 L186 631 L229 708 L46 708 L89 631 L89 216 C89 64 215 -14 335 -14 L335 -14 Z " />
<glyph glyph-name="Udieresis" unicode="&#xdc;" horiz-adv-x="670" d="M265 755 C292 755 314 775 314 802 C314 830 292 851 265 851 C238 851 218 830 218 802 C218 775 238 755 265 755 L265 755 Z M421 755 C448 755 471 775 471 802 C471 830 448 851 421 851 C395 851 374 830 374 802 C374 775 395 755 421 755 L421 755 Z M335 -14 C510 -14 580 100 580 203 L580 631 L623 708 L458 708 L501 631 L501 203 C501 81 408 47 344 47 C271 47 186 94 186 203 L186 631 L229 708 L46 708 L89 631 L89 216 C89 64 215 -14 335 -14 L335 -14 Z " />
<glyph glyph-name="Yacute" unicode="&#xdd;" horiz-adv-x="614" d="M442 844 L326 844 L285 752 L330 752 L442 844 Z M500 626 L586 708 L414 708 L416 626 L313 425 L220 625 L222 708 L28 708 L115 626 L263 350 L263 77 L220 0 L394 0 L351 76 L351 350 L500 626 Z " />
<glyph glyph-name="Thorn" unicode="&#xde;" horiz-adv-x="597" d="M343 588 L186 588 L186 631 L229 708 L55 708 L98 631 L98 76 L55 0 L229 0 L186 76 L186 164 L343 164 C485 164 557 268 557 377 C557 493 477 588 343 588 L343 588 Z M343 221 L186 221 L186 531 L343 531 C426 531 470 454 470 377 C470 297 424 221 343 221 L343 221 Z " />
<glyph glyph-name="germandbls" unicode="&#xdf;" horiz-adv-x="713" d="M494 -7 C590 -7 685 44 685 157 C685 342 403 286 403 406 C403 457 499 500 499 611 C499 724 421 798 312 798 C213 798 100 731 112 625 L121 527 L23 505 L23 456 L121 456 L121 73 L78 0 L252 0 L209 73 L209 527 L197 634 C190 699 221 737 304 737 C389 737 420 649 420 611 C420 500 314 496 314 390 C314 209 597 252 597 141 C597 82 547 49 490 49 C435 49 368 97 352 172 L341 173 L299 58 C329 28 407 -7 494 -7 L494 -7 Z " />
<glyph glyph-name="agrave" unicode="&#xe0;" horiz-adv-x="522" d="M270 613 L229 780 L113 780 L225 613 L270 613 Z M359 0 L491 0 L448 76 L448 369 C448 483 361 541 251 541 C178 541 102 511 56 468 L94 357 L105 358 C140 442 178 480 240 480 C308 480 360 431 360 344 L360 324 L240 297 C115 269 32 230 32 130 C32 52 95 -7 194 -7 C269 -7 337 37 375 117 L381 117 L359 0 Z M210 54 C154 54 127 93 127 136 C127 200 172 218 245 235 L360 263 L360 193 C348 109 280 54 210 54 L210 54 Z " />
<glyph glyph-name="aacute" unicode="&#xe1;" horiz-adv-x="522" d="M381 780 L265 780 L224 613 L269 613 L381 780 Z M359 0 L491 0 L448 76 L448 369 C448 483 361 541 251 541 C178 541 102 511 56 468 L94 357 L105 358 C140 442 178 480 240 480 C308 480 360 431 360 344 L360 324 L240 297 C115 269 32 230 32 130 C32 52 95 -7 194 -7 C269 -7 337 37 375 117 L381 117 L359 0 Z M210 54 C154 54 127 93 127 136 C127 200 172 218 245 235 L360 263 L360 193 C348 109 280 54 210 54 L210 54 Z " />
<glyph glyph-name="acircumflex" unicode="&#xe2;" horiz-adv-x="522" d="M245 743 L301 613 L400 613 L277 780 L210 780 L91 613 L192 613 L245 743 Z M359 0 L491 0 L448 76 L448 369 C448 483 361 541 251 541 C178 541 102 511 56 468 L94 357 L105 358 C140 442 178 480 240 480 C308 480 360 431 360 344 L360 324 L240 297 C115 269 32 230 32 130 C32 52 95 -7 194 -7 C269 -7 337 37 375 117 L381 117 L359 0 Z M210 54 C154 54 127 93 127 136 C127 200 172 218 245 235 L360 263 L360 193 C348 109 280 54 210 54 L210 54 Z " />
<glyph glyph-name="atilde" unicode="&#xe3;" horiz-adv-x="522" d="M129 640 C129 669 151 680 165 680 C196 680 250 620 317 620 C365 620 422 651 413 733 L366 733 C368 701 345 689 329 689 C294 689 243 751 181 751 C131 751 69 712 79 640 L129 640 Z M359 0 L491 0 L448 76 L448 369 C448 483 361 541 251 541 C178 541 102 511 56 468 L94 357 L105 358 C140 442 178 480 240 480 C308 480 360 431 360 344 L360 324 L240 297 C115 269 32 230 32 130 C32 52 95 -7 194 -7 C269 -7 337 37 375 117 L381 117 L359 0 Z M210 54 C154 54 127 93 127 136 C127 200 172 218 245 235 L360 263 L360 193 C348 109 280 54 210 54 L210 54 Z " />
<glyph glyph-name="adieresis" unicode="&#xe4;" horiz-adv-x="522" d="M153 614 C184 614 211 639 211 670 C211 703 184 728 153 728 C121 728 97 703 97 670 C97 639 121 614 153 614 L153 614 Z M337 614 C368 614 395 639 395 670 C395 703 368 728 337 728 C305 728 281 703 281 670 C281 639 305 614 337 614 L337 614 Z M359 0 L491 0 L448 76 L448 369 C448 483 361 541 251 541 C178 541 102 511 56 468 L94 357 L105 358 C140 442 178 480 240 480 C308 480 360 431 360 344 L360 324 L240 297 C115 269 32 230 32 130 C32 52 95 -7 194 -7 C269 -7 337 37 375 117 L381 117 L359 0 Z M210 54 C154 54 127 93 127 136 C127 200 172 218 245 235 L360 263 L360 193 C348 109 280 54 210 54 L210 54 Z " />
<glyph glyph-name="aring" unicode="&#xe5;" horiz-adv-x="522" d="M246 609 C294 609 334 649 334 698 C334 746 294 788 246 788 C198 788 158 748 158 700 C158 648 198 609 246 609 L246 609 Z M247 738 C267 738 285 719 285 699 C285 678 266 660 247 660 C224 660 209 677 209 700 C209 719 225 738 247 738 L247 738 Z M359 0 L491 0 L448 76 L448 369 C448 483 361 541 251 541 C178 541 102 511 56 468 L94 357 L105 358 C140 442 178 480 240 480 C308 480 360 431 360 344 L360 324 L240 297 C115 269 32 230 32 130 C32 52 95 -7 194 -7 C269 -7 337 37 375 117 L381 117 L359 0 Z M210 54 C154 54 127 93 127 136 C127 200 172 218 245 235 L360 263 L360 193 C348 109 280 54 210 54 L210 54 Z " />
<glyph glyph-name="ae" unicode="&#xe6;" horiz-adv-x="837" d="M757 157 C734 110 674 77 614 77 C532 77 471 149 457 255 L798 303 C799 447 711 541 588 541 C522 541 466 508 427 455 C395 512 329 541 251 541 C178 541 102 511 56 468 L94 357 L105 358 C140 442 178 480 240 480 C308 480 360 431 360 344 L360 324 L247 300 C115 269 32 230 32 130 C32 52 95 -7 194 -7 C281 -7 361 38 405 118 C445 43 516 -7 603 -7 C680 -7 752 36 800 123 L757 157 Z M577 480 C642 480 692 425 699 349 L454 313 C459 421 523 480 577 480 L577 480 Z M210 54 C154 54 127 93 127 136 C127 200 172 218 253 239 L360 263 L360 193 C348 109 280 54 210 54 L210 54 Z " />
<glyph glyph-name="ccedilla" unicode="&#xe7;" horiz-adv-x="491" d="M297 77 C190 77 114 174 114 310 C114 417 166 480 253 480 C307 480 374 442 409 358 L420 357 L458 468 C412 511 361 541 280 541 C129 541 36 419 36 268 C36 128 115 12 246 -5 L225 -75 C289 -79 302 -88 302 -108 C302 -131 275 -145 224 -145 C214 -145 199 -144 178 -143 L172 -200 C243 -212 384 -209 384 -113 C384 -79 356 -49 300 -41 L311 -5 C375 5 419 43 454 89 L414 130 C383 98 338 77 297 77 L297 77 Z " />
<glyph glyph-name="egrave" unicode="&#xe8;" horiz-adv-x="503" d="M276 613 L235 780 L119 780 L231 613 L276 613 Z M423 157 C400 110 340 77 280 77 C198 77 137 149 123 255 L464 303 C465 447 377 541 254 541 C127 541 36 419 36 267 C36 116 133 -7 269 -7 C346 -7 418 36 466 123 L423 157 Z M243 480 C308 480 358 425 365 349 L120 313 C125 421 189 480 243 480 L243 480 Z " />
<glyph glyph-name="eacute" unicode="&#xe9;" horiz-adv-x="503" d="M387 780 L271 780 L230 613 L275 613 L387 780 Z M423 157 C400 110 340 77 280 77 C198 77 137 149 123 255 L464 303 C465 447 377 541 254 541 C127 541 36 419 36 267 C36 116 133 -7 269 -7 C346 -7 418 36 466 123 L423 157 Z M243 480 C308 480 358 425 365 349 L120 313 C125 421 189 480 243 480 L243 480 Z " />
<glyph glyph-name="ecircumflex" unicode="&#xea;" horiz-adv-x="503" d="M251 743 L307 613 L406 613 L283 780 L216 780 L97 613 L198 613 L251 743 Z M423 157 C400 110 340 77 280 77 C198 77 137 149 123 255 L464 303 C465 447 377 541 254 541 C127 541 36 419 36 267 C36 116 133 -7 269 -7 C346 -7 418 36 466 123 L423 157 Z M243 480 C308 480 358 425 365 349 L120 313 C125 421 189 480 243 480 L243 480 Z " />
<glyph glyph-name="edieresis" unicode="&#xeb;" horiz-adv-x="503" d="M159 614 C190 614 217 639 217 670 C217 703 190 728 159 728 C127 728 103 703 103 670 C103 639 127 614 159 614 L159 614 Z M343 614 C374 614 401 639 401 670 C401 703 374 728 343 728 C311 728 287 703 287 670 C287 639 311 614 343 614 L343 614 Z M423 157 C400 110 340 77 280 77 C198 77 137 149 123 255 L464 303 C465 447 377 541 254 541 C127 541 36 419 36 267 C36 116 133 -7 269 -7 C346 -7 418 36 466 123 L423 157 Z M243 480 C308 480 358 425 365 349 L120 313 C125 421 189 480 243 480 L243 480 Z " />
<glyph glyph-name="igrave" unicode="&#xec;" horiz-adv-x="247" d="M103 613 L148 613 L107 780 L-9 780 L103 613 Z M39 0 L213 0 L170 76 L170 527 L39 527 L82 454 L82 76 L39 0 Z " />
<glyph glyph-name="iacute" unicode="&#xed;" horiz-adv-x="247" d="M147 613 L259 780 L143 780 L102 613 L147 613 Z M39 0 L213 0 L170 76 L170 527 L39 527 L82 454 L82 76 L39 0 Z " />
<glyph glyph-name="icircumflex" unicode="&#xee;" horiz-adv-x="247" d="M-31 613 L70 613 L123 743 L179 613 L278 613 L155 780 L88 780 L-31 613 Z M39 0 L213 0 L170 76 L170 527 L39 527 L82 454 L82 76 L39 0 Z " />
<glyph glyph-name="idieresis" unicode="&#xef;" horiz-adv-x="247" d="M31 614 C62 614 89 639 89 670 C89 703 62 728 31 728 C-1 728 -25 703 -25 670 C-25 639 -1 614 31 614 L31 614 Z M215 614 C246 614 273 639 273 670 C273 703 246 728 215 728 C183 728 159 703 159 670 C159 639 183 614 215 614 L215 614 Z M39 0 L213 0 L170 76 L170 527 L39 527 L82 454 L82 76 L39 0 Z " />
<glyph glyph-name="eth" unicode="&#xf0;" horiz-adv-x="564" d="M375 675 L436 709 L436 753 L339 706 C296 739 246 763 191 781 L140 728 C186 712 227 692 265 670 L160 619 L160 556 L309 639 C364 597 406 545 432 483 C391 519 339 541 279 541 C137 541 36 419 36 267 C36 116 137 -7 279 -7 C421 -7 522 116 522 267 C522 457 467 589 375 675 L375 675 Z M300 54 C202 54 120 177 120 301 C120 417 190 480 258 480 C356 480 438 358 438 234 C438 126 375 54 300 54 L300 54 Z " />
<glyph glyph-name="ntilde" unicode="&#xf1;" horiz-adv-x="588" d="M369 620 C417 620 474 651 465 733 L418 733 C420 701 397 689 381 689 C346 689 295 751 233 751 C183 751 121 712 131 640 L181 640 C181 669 203 680 217 680 C248 680 302 620 369 620 L369 620 Z M37 0 L211 0 L168 76 L168 313 C176 380 222 479 319 479 C428 479 428 354 428 330 L428 76 L385 0 L559 0 L516 76 L516 317 C516 360 516 541 340 541 C228 541 175 468 153 417 L147 417 L170 541 L37 497 L80 421 L80 76 L37 0 Z " />
<glyph glyph-name="ograve" unicode="&#xf2;" horiz-adv-x="558" d="M258 613 L303 613 L262 780 L146 780 L258 613 Z M279 -7 C421 -7 522 116 522 267 C522 419 421 541 279 541 C137 541 36 419 36 267 C36 116 137 -7 279 -7 L279 -7 Z M300 54 C202 54 120 177 120 301 C120 417 190 480 258 480 C356 480 438 358 438 234 C438 126 375 54 300 54 L300 54 Z " />
<glyph glyph-name="oacute" unicode="&#xf3;" horiz-adv-x="558" d="M302 613 L414 780 L298 780 L257 613 L302 613 Z M279 -7 C421 -7 522 116 522 267 C522 419 421 541 279 541 C137 541 36 419 36 267 C36 116 137 -7 279 -7 L279 -7 Z M300 54 C202 54 120 177 120 301 C120 417 190 480 258 480 C356 480 438 358 438 234 C438 126 375 54 300 54 L300 54 Z " />
<glyph glyph-name="ocircumflex" unicode="&#xf4;" horiz-adv-x="558" d="M124 613 L225 613 L278 743 L334 613 L433 613 L310 780 L243 780 L124 613 Z M279 -7 C421 -7 522 116 522 267 C522 419 421 541 279 541 C137 541 36 419 36 267 C36 116 137 -7 279 -7 L279 -7 Z M300 54 C202 54 120 177 120 301 C120 417 190 480 258 480 C356 480 438 358 438 234 C438 126 375 54 300 54 L300 54 Z " />
<glyph glyph-name="otilde" unicode="&#xf5;" horiz-adv-x="558" d="M350 620 C398 620 455 651 446 733 L399 733 C401 701 378 689 362 689 C327 689 276 751 214 751 C164 751 102 712 112 640 L162 640 C162 669 184 680 198 680 C229 680 283 620 350 620 L350 620 Z M279 -7 C421 -7 522 116 522 267 C522 419 421 541 279 541 C137 541 36 419 36 267 C36 116 137 -7 279 -7 L279 -7 Z M300 54 C202 54 120 177 120 301 C120 417 190 480 258 480 C356 480 438 358 438 234 C438 126 375 54 300 54 L300 54 Z " />
<glyph glyph-name="odieresis" unicode="&#xf6;" horiz-adv-x="558" d="M186 614 C217 614 244 639 244 670 C244 703 217 728 186 728 C154 728 130 703 130 670 C130 639 154 614 186 614 L186 614 Z M370 614 C401 614 428 639 428 670 C428 703 401 728 370 728 C338 728 314 703 314 670 C314 639 338 614 370 614 L370 614 Z M279 -7 C421 -7 522 116 522 267 C522 419 421 541 279 541 C137 541 36 419 36 267 C36 116 137 -7 279 -7 L279 -7 Z M300 54 C202 54 120 177 120 301 C120 417 190 480 258 480 C356 480 438 358 438 234 C438 126 375 54 300 54 L300 54 Z " />
<glyph glyph-name="divide" unicode="&#xf7;" horiz-adv-x="579" d="M289 472 C325 472 355 500 355 536 C355 573 325 602 289 602 C253 602 225 573 225 536 C225 500 253 472 289 472 L289 472 Z M53 312 L526 312 L526 394 L53 394 L53 312 Z M289 86 C325 86 355 114 355 150 C355 187 325 216 289 216 C253 216 225 187 225 150 C225 114 253 86 289 86 L289 86 Z " />
<glyph glyph-name="oslash" unicode="&#xf8;" horiz-adv-x="568" d="M463 456 C483 479 504 503 526 527 L421 541 C414 530 408 520 402 509 C367 529 328 541 284 541 C142 541 41 419 41 267 C41 193 65 125 107 76 C86 51 65 26 42 1 L148 -13 L170 23 C203 4 242 -7 284 -7 C426 -7 527 116 527 267 C527 340 504 407 463 456 L463 456 Z M125 301 C125 417 195 480 263 480 C298 480 331 464 359 439 C298 340 238 245 166 150 C140 194 125 247 125 301 L125 301 Z M305 54 C271 54 239 69 212 93 C272 191 332 287 404 381 C428 338 443 286 443 234 C443 126 380 54 305 54 L305 54 Z " />
<glyph glyph-name="ugrave" unicode="&#xf9;" horiz-adv-x="587" d="M277 613 L322 613 L281 780 L165 780 L277 613 Z M242 -7 C362 -7 410 74 437 147 L443 147 L422 0 L553 0 L510 76 L510 527 L379 527 L422 451 L422 251 C411 161 368 55 264 55 C162 55 162 158 162 174 L162 527 L31 527 L74 451 L74 187 C74 153 74 -7 242 -7 L242 -7 Z " />
<glyph glyph-name="uacute" unicode="&#xfa;" horiz-adv-x="587" d="M321 613 L433 780 L317 780 L276 613 L321 613 Z M242 -7 C362 -7 410 74 437 147 L443 147 L422 0 L553 0 L510 76 L510 527 L379 527 L422 451 L422 251 C411 161 368 55 264 55 C162 55 162 158 162 174 L162 527 L31 527 L74 451 L74 187 C74 153 74 -7 242 -7 L242 -7 Z " />
<glyph glyph-name="ucircumflex" unicode="&#xfb;" horiz-adv-x="587" d="M143 613 L244 613 L297 743 L353 613 L452 613 L329 780 L262 780 L143 613 Z M242 -7 C362 -7 410 74 437 147 L443 147 L422 0 L553 0 L510 76 L510 527 L379 527 L422 451 L422 251 C411 161 368 55 264 55 C162 55 162 158 162 174 L162 527 L31 527 L74 451 L74 187 C74 153 74 -7 242 -7 L242 -7 Z " />
<glyph glyph-name="udieresis" unicode="&#xfc;" horiz-adv-x="587" d="M205 614 C236 614 263 639 263 670 C263 703 236 728 205 728 C173 728 149 703 149 670 C149 639 173 614 205 614 L205 614 Z M389 614 C420 614 447 639 447 670 C447 703 420 728 389 728 C357 728 333 703 333 670 C333 639 357 614 389 614 L389 614 Z M242 -7 C362 -7 410 74 437 147 L443 147 L422 0 L553 0 L510 76 L510 527 L379 527 L422 451 L422 251 C411 161 368 55 264 55 C162 55 162 158 162 174 L162 527 L31 527 L74 451 L74 187 C74 153 74 -7 242 -7 L242 -7 Z " />
<glyph glyph-name="yacute" unicode="&#xfd;" horiz-adv-x="554" d="M443 780 L327 780 L286 613 L331 613 L443 780 Z M377 527 L394 451 L289 82 L175 451 L192 527 L19 527 L79 451 L228 0 L248 0 L190 -129 L110 -205 L294 -205 L270 -129 L318 0 L326 0 L475 451 L535 527 L377 527 Z " />
<glyph glyph-name="thorn" unicode="&#xfe;" horiz-adv-x="577" d="M320 541 C245 541 183 474 164 412 L164 726 L33 678 L76 602 L76 -182 L207 -182 L164 -104 L164 128 C188 46 256 -8 332 -8 C454 -8 538 92 538 267 C538 446 450 541 320 541 L320 541 Z M323 54 C244 54 177 140 177 265 L177 273 C177 395 235 480 304 480 C403 480 447 377 447 251 C447 138 408 54 323 54 L323 54 Z " />
<glyph glyph-name="ydieresis" unicode="&#xff;" horiz-adv-x="554" d="M215 614 C246 614 273 639 273 670 C273 703 246 728 215 728 C183 728 159 703 159 670 C159 639 183 614 215 614 L215 614 Z M399 614 C430 614 457 639 457 670 C457 703 430 728 399 728 C367 728 343 703 343 670 C343 639 367 614 399 614 L399 614 Z M377 527 L394 451 L289 82 L175 451 L192 527 L19 527 L79 451 L228 0 L248 0 L190 -129 L110 -205 L294 -205 L270 -129 L318 0 L326 0 L475 451 L535 527 L377 527 Z " />
<glyph glyph-name="Amacron" unicode="&#x100;" horiz-adv-x="708" d="M460 817 L228 817 L228 767 L460 767 L460 817 Z M690 0 L620 75 L376 708 L271 708 L302 629 L89 76 L18 0 L178 0 L162 77 L211 208 L467 208 L519 76 L503 0 L690 0 Z M236 276 L336 544 L441 276 L236 276 Z " />
<glyph glyph-name="amacron" unicode="&#x101;" horiz-adv-x="522" d="M404 695 L88 695 L88 625 L404 625 L404 695 Z M359 0 L491 0 L448 76 L448 369 C448 483 361 541 251 541 C178 541 102 511 56 468 L94 357 L105 358 C140 442 178 480 240 480 C308 480 360 431 360 344 L360 324 L240 297 C115 269 32 230 32 130 C32 52 95 -7 194 -7 C269 -7 337 37 375 117 L381 117 L359 0 Z M210 54 C154 54 127 93 127 136 C127 200 172 218 245 235 L360 263 L360 193 C348 109 280 54 210 54 L210 54 Z " />
<glyph glyph-name="Abreve" unicode="&#x102;" horiz-adv-x="708" d="M343 750 C402 750 447 779 462 849 L435 849 C415 810 380 800 343 800 C309 800 273 811 253 849 L225 849 C241 777 284 750 343 750 L343 750 Z M690 0 L620 75 L376 708 L271 708 L302 629 L89 76 L18 0 L178 0 L162 77 L211 208 L467 208 L519 76 L503 0 L690 0 Z M236 276 L336 544 L441 276 L236 276 Z " />
<glyph glyph-name="abreve" unicode="&#x103;" horiz-adv-x="522" d="M245 604 C329 604 400 652 390 752 L347 752 C339 687 290 665 245 665 C204 665 152 688 145 752 L101 752 C92 649 161 604 245 604 L245 604 Z M359 0 L491 0 L448 76 L448 369 C448 483 361 541 251 541 C178 541 102 511 56 468 L94 357 L105 358 C140 442 178 480 240 480 C308 480 360 431 360 344 L360 324 L240 297 C115 269 32 230 32 130 C32 52 95 -7 194 -7 C269 -7 337 37 375 117 L381 117 L359 0 Z M210 54 C154 54 127 93 127 136 C127 200 172 218 245 235 L360 263 L360 193 C348 109 280 54 210 54 L210 54 Z " />
<glyph glyph-name="Aogonek" unicode="&#x104;" horiz-adv-x="708" d="M629 -93 C629 -57 650 -25 687 0 L690 0 L620 75 L376 708 L271 708 L302 629 L89 76 L18 0 L178 0 L162 77 L211 208 L467 208 L519 76 L503 0 L623 0 C580 -35 556 -79 556 -120 C556 -210 651 -233 721 -172 L721 -130 C686 -152 629 -145 629 -93 L629 -93 Z M236 276 L336 544 L441 276 L236 276 Z " />
<glyph glyph-name="aogonek" unicode="&#x105;" horiz-adv-x="522" d="M433 -93 C433 -57 454 -25 491 0 L448 76 L448 369 C448 483 361 541 251 541 C178 541 102 511 56 468 L94 357 L105 358 C140 442 178 480 240 480 C308 480 360 431 360 344 L360 324 L240 297 C115 269 32 230 32 130 C32 52 95 -7 194 -7 C269 -7 337 37 375 117 L381 117 L359 0 L427 0 C384 -35 360 -79 360 -120 C360 -210 455 -233 525 -172 L525 -130 C490 -152 433 -145 433 -93 L433 -93 Z M210 54 C154 54 127 93 127 136 C127 200 172 218 245 235 L360 263 L360 193 C348 109 280 54 210 54 L210 54 Z " />
<glyph glyph-name="Cacute" unicode="&#x106;" horiz-adv-x="683" d="M418 752 L530 844 L414 844 L373 752 L418 752 Z M395 -14 C512 -14 590 38 636 83 L594 130 C561 89 506 47 421 47 C258 47 134 218 134 393 C134 564 253 661 370 661 C466 661 539 613 581 508 L591 508 L624 635 C564 689 487 722 395 722 C192 722 47 557 47 354 C47 151 192 -14 395 -14 L395 -14 Z " />
<glyph glyph-name="cacute" unicode="&#x107;" horiz-adv-x="491" d="M303 613 L415 780 L299 780 L258 613 L303 613 Z M280 -7 C361 -7 414 36 454 89 L414 130 C383 98 338 77 297 77 C190 77 114 174 114 310 C114 417 166 480 253 480 C307 480 374 442 409 358 L420 357 L458 468 C412 511 361 541 280 541 C129 541 36 419 36 268 C36 116 129 -7 280 -7 L280 -7 Z " />
<glyph glyph-name="Ccircumflex" unicode="&#x108;" horiz-adv-x="683" d="M240 752 L341 752 L394 830 L450 752 L549 752 L426 852 L359 852 L240 752 Z M395 -14 C512 -14 590 38 636 83 L594 130 C561 89 506 47 421 47 C258 47 134 218 134 393 C134 564 253 661 370 661 C466 661 539 613 581 508 L591 508 L624 635 C564 689 487 722 395 722 C192 722 47 557 47 354 C47 151 192 -14 395 -14 L395 -14 Z " />
<glyph glyph-name="ccircumflex" unicode="&#x109;" horiz-adv-x="491" d="M125 613 L226 613 L279 743 L335 613 L434 613 L311 780 L244 780 L125 613 Z M280 -7 C361 -7 414 36 454 89 L414 130 C383 98 338 77 297 77 C190 77 114 174 114 310 C114 417 166 480 253 480 C307 480 374 442 409 358 L420 357 L458 468 C412 511 361 541 280 541 C129 541 36 419 36 268 C36 116 129 -7 280 -7 L280 -7 Z " />
<glyph glyph-name="Cdotaccent" unicode="&#x10a;" horiz-adv-x="683" d="M395 748 C425 748 451 772 451 802 C451 834 425 858 395 858 C365 858 341 834 341 802 C341 772 365 748 395 748 L395 748 Z M395 -14 C512 -14 590 38 636 83 L594 130 C561 89 506 47 421 47 C258 47 134 218 134 393 C134 564 253 661 370 661 C466 661 539 613 581 508 L591 508 L624 635 C564 689 487 722 395 722 C192 722 47 557 47 354 C47 151 192 -14 395 -14 L395 -14 Z " />
<glyph glyph-name="cdotaccent" unicode="&#x10b;" horiz-adv-x="491" d="M279 611 C315 611 345 639 345 675 C345 712 315 741 279 741 C243 741 215 712 215 675 C215 639 243 611 279 611 L279 611 Z M280 -7 C361 -7 414 36 454 89 L414 130 C383 98 338 77 297 77 C190 77 114 174 114 310 C114 417 166 480 253 480 C307 480 374 442 409 358 L420 357 L458 468 C412 511 361 541 280 541 C129 541 36 419 36 268 C36 116 129 -7 280 -7 L280 -7 Z " />
<glyph glyph-name="Ccaron" unicode="&#x10c;" horiz-adv-x="683" d="M354 752 L430 752 L549 850 L449 850 L393 774 L340 850 L240 850 L354 752 Z M395 -14 C512 -14 590 38 636 83 L594 130 C561 89 506 47 421 47 C258 47 134 218 134 393 C134 564 253 661 370 661 C466 661 539 613 581 508 L591 508 L624 635 C564 689 487 722 395 722 C192 722 47 557 47 354 C47 151 192 -14 395 -14 L395 -14 Z " />
<glyph glyph-name="ccaron" unicode="&#x10d;" horiz-adv-x="491" d="M239 613 L315 613 L434 780 L334 780 L278 650 L225 780 L125 780 L239 613 Z M280 -7 C361 -7 414 36 454 89 L414 130 C383 98 338 77 297 77 C190 77 114 174 114 310 C114 417 166 480 253 480 C307 480 374 442 409 358 L420 357 L458 468 C412 511 361 541 280 541 C129 541 36 419 36 268 C36 116 129 -7 280 -7 L280 -7 Z " />
<glyph glyph-name="Dcaron" unicode="&#x10e;" horiz-adv-x="687" d="M294 752 L370 752 L489 850 L389 850 L333 774 L280 850 L180 850 L294 752 Z M55 0 L313 0 C535 0 640 189 640 349 C640 562 491 708 313 708 L55 708 L98 632 L98 77 L55 0 Z M186 57 L186 641 L296 641 C590 641 682 57 303 57 L186 57 Z " />
<glyph glyph-name="dcaron" unicode="&#x10f;" horiz-adv-x="566" d="M617 766 C581 766 553 737 553 700 C553 661 583 636 621 636 C621 585 595 562 558 551 L558 521 C633 535 683 601 683 700 C683 737 653 766 617 766 L617 766 Z M486 756 L355 708 L398 632 L398 444 C367 504 309 542 245 542 C123 542 39 442 39 267 C39 88 127 -7 257 -7 C318 -7 370 37 398 87 L398 0 L529 0 L486 78 L486 756 Z M273 54 C174 54 130 157 130 283 C130 396 169 480 254 480 C325 480 386 411 398 306 L398 223 C387 122 334 54 273 54 L273 54 Z " />
<glyph glyph-name="Dcroat" unicode="&#x110;" horiz-adv-x="687" d="M313 708 L55 708 L98 632 L98 392 L5 392 L5 316 L98 316 L98 77 L55 0 L313 0 C535 0 640 189 640 349 C640 562 491 708 313 708 L313 708 Z M303 57 L186 57 L186 316 L308 316 L308 392 L186 392 L186 641 L296 641 C590 641 682 57 303 57 L303 57 Z " />
<glyph glyph-name="dcroat" unicode="&#x111;" horiz-adv-x="566" d="M584 558 L584 623 L486 623 L486 756 L355 708 L398 632 L398 623 L330 623 L330 558 L398 558 L398 444 C367 504 309 542 245 542 C123 542 39 442 39 267 C39 88 127 -7 257 -7 C318 -7 370 37 398 87 L398 0 L529 0 L486 78 L486 558 L584 558 Z M273 54 C174 54 130 157 130 283 C130 396 169 480 254 480 C325 480 386 411 398 306 L398 223 C387 122 334 54 273 54 L273 54 Z " />
<glyph glyph-name="Emacron" unicode="&#x112;" horiz-adv-x="534" d="M162 767 L394 767 L394 817 L162 817 L162 767 Z M55 0 L472 0 L485 99 L412 67 L186 67 L186 350 L369 350 L422 318 L442 450 L368 418 L186 418 L186 641 L413 641 L485 609 L472 708 L55 708 L98 632 L98 77 L55 0 Z " />
<glyph glyph-name="emacron" unicode="&#x113;" horiz-adv-x="503" d="M410 695 L94 695 L94 625 L410 625 L410 695 Z M423 157 C400 110 340 77 280 77 C198 77 137 149 123 255 L464 303 C465 447 377 541 254 541 C127 541 36 419 36 267 C36 116 133 -7 269 -7 C346 -7 418 36 466 123 L423 157 Z M243 480 C308 480 358 425 365 349 L120 313 C125 421 189 480 243 480 L243 480 Z " />
<glyph glyph-name="Ebreve" unicode="&#x114;" horiz-adv-x="534" d="M277 750 C336 750 381 779 396 849 L369 849 C349 810 314 800 277 800 C243 800 207 811 187 849 L159 849 C175 777 218 750 277 750 L277 750 Z M55 0 L472 0 L485 99 L412 67 L186 67 L186 350 L369 350 L422 318 L442 450 L368 418 L186 418 L186 641 L413 641 L485 609 L472 708 L55 708 L98 632 L98 77 L55 0 Z " />
<glyph glyph-name="ebreve" unicode="&#x115;" horiz-adv-x="503" d="M251 604 C335 604 406 652 396 752 L353 752 C345 687 296 665 251 665 C210 665 158 688 151 752 L107 752 C98 649 167 604 251 604 L251 604 Z M423 157 C400 110 340 77 280 77 C198 77 137 149 123 255 L464 303 C465 447 377 541 254 541 C127 541 36 419 36 267 C36 116 133 -7 269 -7 C346 -7 418 36 466 123 L423 157 Z M243 480 C308 480 358 425 365 349 L120 313 C125 421 189 480 243 480 L243 480 Z " />
<glyph glyph-name="Edotaccent" unicode="&#x116;" horiz-adv-x="534" d="M278 748 C308 748 334 772 334 802 C334 834 308 858 278 858 C248 858 224 834 224 802 C224 772 248 748 278 748 L278 748 Z M55 0 L472 0 L485 99 L412 67 L186 67 L186 350 L369 350 L422 318 L442 450 L368 418 L186 418 L186 641 L413 641 L485 609 L472 708 L55 708 L98 632 L98 77 L55 0 Z " />
<glyph glyph-name="edotaccent" unicode="&#x117;" horiz-adv-x="503" d="M251 611 C287 611 317 639 317 675 C317 712 287 741 251 741 C215 741 187 712 187 675 C187 639 215 611 251 611 L251 611 Z M423 157 C400 110 340 77 280 77 C198 77 137 149 123 255 L464 303 C465 447 377 541 254 541 C127 541 36 419 36 267 C36 116 133 -7 269 -7 C346 -7 418 36 466 123 L423 157 Z M243 480 C308 480 358 425 365 349 L120 313 C125 421 189 480 243 480 L243 480 Z " />
<glyph glyph-name="Eogonek" unicode="&#x118;" horiz-adv-x="534" d="M414 -93 C414 -57 435 -25 472 0 L485 99 L412 67 L186 67 L186 350 L369 350 L422 318 L442 450 L368 418 L186 418 L186 641 L413 641 L485 609 L472 708 L55 708 L98 632 L98 77 L55 0 L408 0 C365 -35 341 -79 341 -120 C341 -210 436 -233 506 -172 L506 -130 C471 -152 414 -145 414 -93 L414 -93 Z " />
<glyph glyph-name="eogonek" unicode="&#x119;" horiz-adv-x="503" d="M247 -6 C254 -7 261 -7 269 -7 C346 -7 418 36 466 123 L423 157 C400 110 340 77 280 77 C198 77 137 149 123 255 L464 303 C465 447 377 541 254 541 C127 541 36 419 36 267 C36 137 108 28 214 0 L191 0 C148 -35 124 -79 124 -120 C124 -210 219 -233 289 -172 L289 -130 C254 -152 197 -145 197 -93 C197 -60 215 -30 247 -6 L247 -6 Z M243 480 C308 480 358 425 365 349 L120 313 C125 421 189 480 243 480 L243 480 Z " />
<glyph glyph-name="Ecaron" unicode="&#x11a;" horiz-adv-x="534" d="M237 752 L313 752 L432 850 L332 850 L276 774 L223 850 L123 850 L237 752 Z M55 0 L472 0 L485 99 L412 67 L186 67 L186 350 L369 350 L422 318 L442 450 L368 418 L186 418 L186 641 L413 641 L485 609 L472 708 L55 708 L98 632 L98 77 L55 0 Z " />
<glyph glyph-name="ecaron" unicode="&#x11b;" horiz-adv-x="503" d="M287 613 L406 780 L306 780 L250 650 L197 780 L97 780 L211 613 L287 613 Z M423 157 C400 110 340 77 280 77 C198 77 137 149 123 255 L464 303 C465 447 377 541 254 541 C127 541 36 419 36 267 C36 116 133 -7 269 -7 C346 -7 418 36 466 123 L423 157 Z M243 480 C308 480 358 425 365 349 L120 313 C125 421 189 480 243 480 L243 480 Z " />
<glyph glyph-name="Gcircumflex" unicode="&#x11c;" horiz-adv-x="743" d="M240 752 L341 752 L394 830 L450 752 L549 752 L426 852 L359 852 L240 752 Z M395 -14 C586 -14 703 126 703 378 L370 378 L351 289 L606 307 C606 207 568 47 408 47 C246 47 134 213 134 383 C134 542 241 661 387 661 C489 661 573 613 621 508 L631 508 L664 634 C596 689 509 722 405 722 C196 722 47 557 47 354 C47 151 192 -14 395 -14 L395 -14 Z " />
<glyph glyph-name="gcircumflex" unicode="&#x11d;" horiz-adv-x="558" d="M263 743 L319 613 L418 613 L295 780 L228 780 L109 613 L210 613 L263 743 Z M359 527 L402 451 L402 440 C371 502 312 542 247 542 C125 542 41 442 41 267 C41 88 129 -7 259 -7 C321 -7 375 39 402 91 L402 20 C402 -97 332 -146 261 -146 C189 -146 114 -108 101 -48 L93 -46 L53 -143 C76 -175 165 -207 255 -207 C368 -207 490 -147 490 27 L490 527 L359 527 Z M275 54 C176 54 132 157 132 283 C132 396 171 480 256 480 C335 480 402 394 402 269 L402 261 C402 139 344 54 275 54 L275 54 Z " />
<glyph glyph-name="Gbreve" unicode="&#x11e;" horiz-adv-x="743" d="M394 750 C453 750 498 779 513 849 L486 849 C466 810 431 800 394 800 C360 800 324 811 304 849 L276 849 C292 777 335 750 394 750 L394 750 Z M395 -14 C586 -14 703 126 703 378 L370 378 L351 289 L606 307 C606 207 568 47 408 47 C246 47 134 213 134 383 C134 542 241 661 387 661 C489 661 573 613 621 508 L631 508 L664 634 C596 689 509 722 405 722 C196 722 47 557 47 354 C47 151 192 -14 395 -14 L395 -14 Z " />
<glyph glyph-name="gbreve" unicode="&#x11f;" horiz-adv-x="558" d="M263 604 C347 604 418 652 408 752 L365 752 C357 687 308 665 263 665 C222 665 170 688 163 752 L119 752 C110 649 179 604 263 604 L263 604 Z M359 527 L402 451 L402 440 C371 502 312 542 247 542 C125 542 41 442 41 267 C41 88 129 -7 259 -7 C321 -7 375 39 402 91 L402 20 C402 -97 332 -146 261 -146 C189 -146 114 -108 101 -48 L93 -46 L53 -143 C76 -175 165 -207 255 -207 C368 -207 490 -147 490 27 L490 527 L359 527 Z M275 54 C176 54 132 157 132 283 C132 396 171 480 256 480 C335 480 402 394 402 269 L402 261 C402 139 344 54 275 54 L275 54 Z " />
<glyph glyph-name="Gdotaccent" unicode="&#x120;" horiz-adv-x="743" d="M395 748 C425 748 451 772 451 802 C451 834 425 858 395 858 C365 858 341 834 341 802 C341 772 365 748 395 748 L395 748 Z M395 -14 C586 -14 703 126 703 378 L370 378 L351 289 L606 307 C606 207 568 47 408 47 C246 47 134 213 134 383 C134 542 241 661 387 661 C489 661 573 613 621 508 L631 508 L664 634 C596 689 509 722 405 722 C196 722 47 557 47 354 C47 151 192 -14 395 -14 L395 -14 Z " />
<glyph glyph-name="gdotaccent" unicode="&#x121;" horiz-adv-x="558" d="M263 611 C299 611 329 639 329 675 C329 712 299 741 263 741 C227 741 199 712 199 675 C199 639 227 611 263 611 L263 611 Z M359 527 L402 451 L402 440 C371 502 312 542 247 542 C125 542 41 442 41 267 C41 88 129 -7 259 -7 C321 -7 375 39 402 91 L402 20 C402 -97 332 -146 261 -146 C189 -146 114 -108 101 -48 L93 -46 L53 -143 C76 -175 165 -207 255 -207 C368 -207 490 -147 490 27 L490 527 L359 527 Z M275 54 C176 54 132 157 132 283 C132 396 171 480 256 480 C335 480 402 394 402 269 L402 261 C402 139 344 54 275 54 L275 54 Z " />
<glyph glyph-name="uni0122" unicode="&#x122;" horiz-adv-x="743" d="M395 -14 C586 -14 703 126 703 378 L370 378 L351 289 L606 307 C606 207 568 47 408 47 C246 47 134 213 134 383 C134 542 241 661 387 661 C489 661 573 613 621 508 L631 508 L664 634 C596 689 509 722 405 722 C196 722 47 557 47 354 C47 151 192 -14 395 -14 L395 -14 Z M335 -285 C410 -271 460 -205 460 -106 C460 -69 430 -40 394 -40 C358 -40 330 -69 330 -106 C330 -145 360 -170 398 -170 C398 -221 372 -244 335 -255 L335 -285 Z " />
<glyph glyph-name="uni0123" unicode="&#x123;" horiz-adv-x="558" d="M276 565 C312 565 340 594 340 631 C340 670 310 695 272 695 C272 746 298 769 335 780 L335 810 C260 796 210 730 210 631 C210 594 240 565 276 565 L276 565 Z M359 527 L402 451 L402 440 C371 502 312 542 247 542 C125 542 41 442 41 267 C41 88 129 -7 259 -7 C321 -7 375 39 402 91 L402 20 C402 -97 332 -146 261 -146 C189 -146 114 -108 101 -48 L93 -46 L53 -143 C76 -175 165 -207 255 -207 C368 -207 490 -147 490 27 L490 527 L359 527 Z M275 54 C176 54 132 157 132 283 C132 396 171 480 256 480 C335 480 402 394 402 269 L402 261 C402 139 344 54 275 54 L275 54 Z " />
<glyph glyph-name="Hcircumflex" unicode="&#x124;" horiz-adv-x="713" d="M202 752 L303 752 L356 830 L412 752 L511 752 L388 852 L321 852 L202 752 Z M55 0 L229 0 L186 76 L186 330 L527 330 L527 76 L484 0 L658 0 L615 76 L615 631 L658 708 L484 708 L527 632 L527 398 L186 398 L186 631 L229 708 L55 708 L98 632 L98 76 L55 0 Z " />
<glyph glyph-name="hcircumflex" unicode="&#x125;" horiz-adv-x="584" d="M381 0 L555 0 L512 76 L512 317 C512 360 512 541 336 541 C246 541 194 494 166 449 L166 756 L35 708 L78 632 L78 77 L35 0 L209 0 L166 76 L166 326 C178 392 224 479 315 479 C424 479 424 354 424 330 L424 76 L381 0 Z M338 663 L394 585 L493 585 L370 685 L303 685 L184 585 L285 585 L338 663 Z " />
<glyph glyph-name="Hbar" unicode="&#x126;" horiz-adv-x="713" d="M690 489 L690 565 L615 565 L615 631 L658 708 L484 708 L527 632 L527 565 L186 565 L186 631 L229 708 L55 708 L98 632 L98 565 L64 565 L64 489 L98 489 L98 76 L55 0 L229 0 L186 76 L186 330 L527 330 L527 76 L484 0 L658 0 L615 76 L615 489 L690 489 Z M527 398 L186 398 L186 489 L527 489 L527 398 Z " />
<glyph glyph-name="hbar" unicode="&#x127;" horiz-adv-x="584" d="M381 0 L555 0 L512 76 L512 317 C512 360 512 541 336 541 C246 541 194 494 166 449 L166 558 L260 558 L260 623 L166 623 L166 756 L35 708 L78 632 L78 623 L6 623 L6 558 L78 558 L78 77 L35 0 L209 0 L166 76 L166 326 C178 392 224 479 315 479 C424 479 424 354 424 330 L424 76 L381 0 Z " />
<glyph glyph-name="Itilde" unicode="&#x128;" horiz-adv-x="284" d="M202 747 C234 747 255 768 268 834 L230 834 C220 746 154 842 91 842 C54 842 29 817 16 755 L56 755 C66 840 121 747 202 747 L202 747 Z M55 0 L229 0 L186 76 L186 631 L229 708 L55 708 L98 631 L98 76 L55 0 Z " />
<glyph glyph-name="itilde" unicode="&#x129;" horiz-adv-x="247" d="M195 620 C243 620 300 651 291 733 L244 733 C246 701 223 689 207 689 C172 689 121 751 59 751 C9 751 -53 712 -43 640 L7 640 C7 669 29 680 43 680 C74 680 128 620 195 620 L195 620 Z M39 0 L213 0 L170 76 L170 527 L39 527 L82 454 L82 76 L39 0 Z " />
<glyph glyph-name="Imacron" unicode="&#x12a;" horiz-adv-x="284" d="M26 767 L258 767 L258 817 L26 817 L26 767 Z M55 0 L229 0 L186 76 L186 631 L229 708 L55 708 L98 631 L98 76 L55 0 Z " />
<glyph glyph-name="imacron" unicode="&#x12b;" horiz-adv-x="247" d="M-34 625 L282 625 L282 695 L-34 695 L-34 625 Z M39 0 L213 0 L170 76 L170 527 L39 527 L82 454 L82 76 L39 0 Z " />
<glyph glyph-name="Ibreve" unicode="&#x12c;" horiz-adv-x="284" d="M141 750 C200 750 245 779 260 849 L233 849 C213 810 178 800 141 800 C107 800 71 811 51 849 L23 849 C39 777 82 750 141 750 L141 750 Z M55 0 L229 0 L186 76 L186 631 L229 708 L55 708 L98 631 L98 76 L55 0 Z " />
<glyph glyph-name="ibreve" unicode="&#x12d;" horiz-adv-x="247" d="M123 604 C207 604 278 652 268 752 L225 752 C217 687 168 665 123 665 C82 665 30 688 23 752 L-21 752 C-30 649 39 604 123 604 L123 604 Z M39 0 L213 0 L170 76 L170 527 L39 527 L82 454 L82 76 L39 0 Z " />
<glyph glyph-name="Iogonek" unicode="&#x12e;" horiz-adv-x="284" d="M171 -93 C171 -57 192 -25 229 0 L186 76 L186 631 L229 708 L55 708 L98 631 L98 76 L55 0 L165 0 C122 -35 98 -79 98 -120 C98 -210 193 -233 263 -172 L263 -130 C228 -152 171 -145 171 -93 L171 -93 Z " />
<glyph glyph-name="iogonek" unicode="&#x12f;" horiz-adv-x="247" d="M123 611 C159 611 189 639 189 675 C189 712 159 741 123 741 C87 741 59 712 59 675 C59 639 87 611 123 611 L123 611 Z M155 -93 C155 -57 176 -25 213 0 L170 76 L170 527 L39 527 L82 454 L82 76 L39 0 L149 0 C106 -35 82 -79 82 -120 C82 -210 177 -233 247 -172 L247 -130 C212 -152 155 -145 155 -93 L155 -93 Z " />
<glyph glyph-name="Idotaccent" unicode="&#x130;" horiz-adv-x="284" d="M142 748 C172 748 198 772 198 802 C198 834 172 858 142 858 C112 858 88 834 88 802 C88 772 112 748 142 748 L142 748 Z M55 0 L229 0 L186 76 L186 631 L229 708 L55 708 L98 631 L98 76 L55 0 Z " />
<glyph glyph-name="dotlessi" unicode="&#x131;" horiz-adv-x="247" d="M39 0 L213 0 L170 76 L170 527 L39 527 L82 454 L82 76 L39 0 Z " />
<glyph glyph-name="IJ" unicode="&#x132;" horiz-adv-x="564" d="M55 0 L229 0 L186 76 L186 631 L229 708 L55 708 L98 631 L98 76 L55 0 Z M280 -225 C387 -225 466 -152 466 28 L466 632 L509 708 L335 708 L378 632 L378 -30 C378 -113 337 -163 273 -163 C205 -163 173 -106 173 -30 L100 -84 C100 -152 172 -225 280 -225 L280 -225 Z " />
<glyph glyph-name="ij" unicode="&#x133;" horiz-adv-x="490" d="M123 611 C159 611 189 639 189 675 C189 712 159 741 123 741 C87 741 59 712 59 675 C59 639 87 611 123 611 L123 611 Z M368 611 C404 611 434 639 434 675 C434 712 404 741 368 741 C332 741 304 712 304 675 C304 639 332 611 368 611 L368 611 Z M39 0 L213 0 L170 76 L170 527 L39 527 L82 454 L82 76 L39 0 Z M234 -198 C340 -198 416 -129 416 -23 L416 527 L285 527 L328 456 L328 77 C328 -77 338 -128 234 -134 L234 -198 Z " />
<glyph glyph-name="Jcircumflex" unicode="&#x134;" horiz-adv-x="487" d="M198 752 L299 752 L352 830 L408 752 L507 752 L384 852 L317 852 L198 752 Z M211 -14 C318 -14 397 59 397 239 L397 632 L440 708 L266 708 L309 632 L309 181 C309 98 268 48 204 48 C136 48 104 105 104 181 L31 127 C31 59 103 -14 211 -14 L211 -14 Z " />
<glyph glyph-name="jcircumflex" unicode="&#x135;" horiz-adv-x="243" d="M-33 613 L68 613 L121 743 L177 613 L276 613 L153 780 L86 780 L-33 613 Z M-13 -198 C93 -198 169 -129 169 -23 L169 527 L38 527 L81 456 L81 77 C81 -77 91 -128 -13 -134 L-13 -198 Z " />
<glyph glyph-name="uni0136" unicode="&#x136;" horiz-adv-x="650" d="M621 0 L537 75 L351 457 L489 632 L589 708 L404 708 L407 648 L186 358 L186 631 L229 708 L55 708 L98 631 L98 76 L55 0 L229 0 L186 76 L186 247 L292 381 L437 70 L435 0 L621 0 Z M318 -40 C282 -40 254 -69 254 -106 C254 -145 284 -170 322 -170 C322 -221 296 -244 259 -255 L259 -285 C334 -271 384 -205 384 -106 C384 -69 354 -40 318 -40 L318 -40 Z " />
<glyph glyph-name="uni0137" unicode="&#x137;" horiz-adv-x="559" d="M538 0 L464 76 L328 350 L435 465 L516 527 L342 527 L334 465 L167 277 L167 756 L36 708 L79 632 L79 77 L36 0 L210 0 L167 76 L167 176 L266 283 L364 76 L357 0 L538 0 Z M281 -36 C245 -36 217 -65 217 -102 C217 -141 247 -166 285 -166 C285 -217 259 -240 222 -251 L222 -281 C297 -267 347 -201 347 -102 C347 -65 317 -36 281 -36 L281 -36 Z " />
<glyph glyph-name="kgreenlandic" unicode="&#x138;" horiz-adv-x="560" d="M539 0 L465 76 L329 350 L436 465 L517 527 L343 527 L335 465 L168 277 L168 544 L37 496 L80 420 L80 77 L37 0 L211 0 L168 76 L168 176 L267 283 L365 76 L358 0 L539 0 Z " />
<glyph glyph-name="Lacute" unicode="&#x139;" horiz-adv-x="531" d="M166 752 L278 844 L162 844 L121 752 L166 752 Z M55 0 L484 0 L497 99 L427 67 L186 67 L186 631 L229 708 L55 708 L98 631 L98 76 L55 0 Z " />
<glyph glyph-name="lacute" unicode="&#x13a;" horiz-adv-x="242" d="M147 772 L259 864 L143 864 L102 772 L147 772 Z M35 0 L209 0 L166 76 L166 756 L35 708 L78 632 L78 77 L35 0 Z " />
<glyph glyph-name="uni013B" unicode="&#x13b;" horiz-adv-x="531" d="M55 0 L484 0 L497 99 L427 67 L186 67 L186 631 L229 708 L55 708 L98 631 L98 76 L55 0 Z M201 -285 C276 -271 326 -205 326 -106 C326 -69 296 -40 260 -40 C224 -40 196 -69 196 -106 C196 -145 226 -170 264 -170 C264 -221 238 -244 201 -255 L201 -285 Z " />
<glyph glyph-name="uni013C" unicode="&#x13c;" horiz-adv-x="242" d="M35 0 L209 0 L166 76 L166 756 L35 708 L78 632 L78 77 L35 0 Z M64 -281 C139 -267 189 -201 189 -102 C189 -65 159 -36 123 -36 C87 -36 59 -65 59 -102 C59 -141 89 -166 127 -166 C127 -217 101 -240 64 -251 L64 -281 Z " />
<glyph glyph-name="Lcaron" unicode="&#x13d;" horiz-adv-x="531" d="M102 752 L178 752 L297 850 L197 850 L141 774 L88 850 L-12 850 L102 752 Z M55 0 L484 0 L497 99 L427 67 L186 67 L186 631 L229 708 L55 708 L98 631 L98 76 L55 0 Z " />
<glyph glyph-name="lcaron" unicode="&#x13e;" horiz-adv-x="242" d="M83 814 L159 814 L278 981 L178 981 L122 851 L69 981 L-31 981 L83 814 Z M35 0 L209 0 L166 76 L166 756 L35 708 L78 632 L78 77 L35 0 Z " />
<glyph glyph-name="Ldot" unicode="&#x13f;" horiz-adv-x="733" d="M55 0 L484 0 L497 99 L427 67 L186 67 L186 631 L229 708 L55 708 L98 631 L98 76 L55 0 Z M350 297 C386 297 416 325 416 361 C416 398 386 427 350 427 C314 427 286 398 286 361 C286 325 314 297 350 297 L350 297 Z " />
<glyph glyph-name="ldot" unicode="&#x140;" horiz-adv-x="444" d="M35 0 L209 0 L166 76 L166 756 L35 708 L78 632 L78 77 L35 0 Z M342 297 C378 297 408 325 408 361 C408 398 378 427 342 427 C306 427 278 398 278 361 C278 325 306 297 342 297 L342 297 Z " />
<glyph glyph-name="Lslash" unicode="&#x141;" horiz-adv-x="531" d="M427 67 L186 67 L186 341 L262 376 L260 439 L186 405 L186 631 L229 708 L55 708 L98 631 L98 364 L23 330 L25 268 L98 301 L98 76 L55 0 L484 0 L497 99 L427 67 Z " />
<glyph glyph-name="lslash" unicode="&#x142;" horiz-adv-x="242" d="M268 411 L268 494 L166 431 L166 756 L35 708 L78 632 L78 376 L-20 315 L-20 233 L78 294 L78 77 L35 0 L209 0 L166 76 L166 348 L268 411 Z " />
<glyph glyph-name="Nacute" unicode="&#x143;" horiz-adv-x="703" d="M476 844 L360 844 L319 752 L364 752 L476 844 Z M481 708 L534 632 L534 172 L197 708 L56 708 L99 632 L99 76 L56 0 L216 0 L173 77 L173 571 L559 -31 L608 0 L608 632 L651 708 L481 708 Z " />
<glyph glyph-name="nacute" unicode="&#x144;" horiz-adv-x="588" d="M321 613 L433 780 L317 780 L276 613 L321 613 Z M37 0 L211 0 L168 76 L168 313 C176 380 222 479 319 479 C428 479 428 354 428 330 L428 76 L385 0 L559 0 L516 76 L516 317 C516 360 516 541 340 541 C228 541 175 468 153 417 L147 417 L170 541 L37 497 L80 421 L80 76 L37 0 Z " />
<glyph glyph-name="uni0145" unicode="&#x145;" horiz-adv-x="703" d="M481 708 L534 632 L534 172 L197 708 L56 708 L99 632 L99 76 L56 0 L216 0 L173 77 L173 571 L559 -31 L608 0 L608 632 L651 708 L481 708 Z M340 -40 C304 -40 276 -69 276 -106 C276 -145 306 -170 344 -170 C344 -221 318 -244 281 -255 L281 -285 C356 -271 406 -205 406 -106 C406 -69 376 -40 340 -40 L340 -40 Z " />
<glyph glyph-name="uni0146" unicode="&#x146;" horiz-adv-x="588" d="M37 0 L211 0 L168 76 L168 313 C176 380 222 479 319 479 C428 479 428 354 428 330 L428 76 L385 0 L559 0 L516 76 L516 317 C516 360 516 541 340 541 C228 541 175 468 153 417 L147 417 L170 541 L37 497 L80 421 L80 76 L37 0 Z M238 -281 C313 -267 363 -201 363 -102 C363 -65 333 -36 297 -36 C261 -36 233 -65 233 -102 C233 -141 263 -166 301 -166 C301 -217 275 -240 238 -251 L238 -281 Z " />
<glyph glyph-name="Ncaron" unicode="&#x147;" horiz-adv-x="703" d="M376 752 L495 850 L395 850 L339 774 L286 850 L186 850 L300 752 L376 752 Z M481 708 L534 632 L534 172 L197 708 L56 708 L99 632 L99 76 L56 0 L216 0 L173 77 L173 571 L559 -31 L608 0 L608 632 L651 708 L481 708 Z " />
<glyph glyph-name="ncaron" unicode="&#x148;" horiz-adv-x="588" d="M257 613 L333 613 L452 780 L352 780 L296 650 L243 780 L143 780 L257 613 Z M37 0 L211 0 L168 76 L168 313 C176 380 222 479 319 479 C428 479 428 354 428 330 L428 76 L385 0 L559 0 L516 76 L516 317 C516 360 516 541 340 541 C228 541 175 468 153 417 L147 417 L170 541 L37 497 L80 421 L80 76 L37 0 Z " />
<glyph glyph-name="Omacron" unicode="&#x14c;" horiz-adv-x="790" d="M280 767 L512 767 L512 817 L280 817 L280 767 Z M395 -14 C598 -14 743 151 743 354 C743 557 598 722 395 722 C192 722 47 557 47 354 C47 151 192 -14 395 -14 L395 -14 Z M422 47 C258 47 134 217 134 393 C134 565 253 661 370 661 C518 661 656 508 656 322 C656 167 560 47 422 47 L422 47 Z " />
<glyph glyph-name="omacron" unicode="&#x14d;" horiz-adv-x="558" d="M121 625 L437 625 L437 695 L121 695 L121 625 Z M279 -7 C421 -7 522 116 522 267 C522 419 421 541 279 541 C137 541 36 419 36 267 C36 116 137 -7 279 -7 L279 -7 Z M300 54 C202 54 120 177 120 301 C120 417 190 480 258 480 C356 480 438 358 438 234 C438 126 375 54 300 54 L300 54 Z " />
<glyph glyph-name="Obreve" unicode="&#x14e;" horiz-adv-x="790" d="M395 750 C454 750 499 779 514 849 L487 849 C467 810 432 800 395 800 C361 800 325 811 305 849 L277 849 C293 777 336 750 395 750 L395 750 Z M395 -14 C598 -14 743 151 743 354 C743 557 598 722 395 722 C192 722 47 557 47 354 C47 151 192 -14 395 -14 L395 -14 Z M422 47 C258 47 134 217 134 393 C134 565 253 661 370 661 C518 661 656 508 656 322 C656 167 560 47 422 47 L422 47 Z " />
<glyph glyph-name="obreve" unicode="&#x14f;" horiz-adv-x="558" d="M278 604 C362 604 433 652 423 752 L380 752 C372 687 323 665 278 665 C237 665 185 688 178 752 L134 752 C125 649 194 604 278 604 L278 604 Z M279 -7 C421 -7 522 116 522 267 C522 419 421 541 279 541 C137 541 36 419 36 267 C36 116 137 -7 279 -7 L279 -7 Z M300 54 C202 54 120 177 120 301 C120 417 190 480 258 480 C356 480 438 358 438 234 C438 126 375 54 300 54 L300 54 Z " />
<glyph glyph-name="Ohungarumlaut" unicode="&#x150;" horiz-adv-x="790" d="M262 752 L312 752 L412 850 L305 850 L262 752 Z M409 752 L461 752 L572 850 L466 850 L409 752 Z M395 -14 C598 -14 743 151 743 354 C743 557 598 722 395 722 C192 722 47 557 47 354 C47 151 192 -14 395 -14 L395 -14 Z M422 47 C258 47 134 217 134 393 C134 565 253 661 370 661 C518 661 656 508 656 322 C656 167 560 47 422 47 L422 47 Z " />
<glyph glyph-name="ohungarumlaut" unicode="&#x151;" horiz-adv-x="558" d="M165 613 L219 613 L326 780 L211 780 L165 613 Z M322 613 L378 613 L497 780 L384 780 L322 613 Z M279 -7 C421 -7 522 116 522 267 C522 419 421 541 279 541 C137 541 36 419 36 267 C36 116 137 -7 279 -7 L279 -7 Z M300 54 C202 54 120 177 120 301 C120 417 190 480 258 480 C356 480 438 358 438 234 C438 126 375 54 300 54 L300 54 Z " />
<glyph glyph-name="OE" unicode="&#x152;" horiz-adv-x="1093" d="M617 67 C695 134 742 236 743 350 L928 350 L981 318 L1001 450 L927 418 L738 418 C724 508 681 586 617 641 L972 641 L1044 609 L1031 708 L494 708 C463 717 430 722 395 722 C192 722 47 557 47 354 C47 151 192 -14 395 -14 C430 -14 463 -9 494 0 L1031 0 L1044 99 L971 67 L617 67 Z M134 393 C134 565 253 661 370 661 C518 661 656 508 656 322 C656 205 601 107 514 67 L512 67 L511 66 C484 54 454 47 422 47 C258 47 134 217 134 393 L134 393 Z " />
<glyph glyph-name="oe" unicode="&#x153;" horiz-adv-x="905" d="M825 157 C802 110 742 77 682 77 C600 77 539 149 525 255 L866 303 C867 447 779 541 656 541 C580 541 516 497 478 428 C435 497 364 541 279 541 C137 541 36 419 36 267 C36 116 137 -7 279 -7 C365 -7 437 39 479 108 C520 39 588 -7 671 -7 C748 -7 820 36 868 123 L825 157 Z M300 54 C202 54 120 177 120 301 C120 417 190 480 258 480 C356 480 438 358 438 234 C438 126 375 54 300 54 L300 54 Z M645 480 C710 480 760 425 767 349 L522 313 C527 421 591 480 645 480 L645 480 Z " />
<glyph glyph-name="Racute" unicode="&#x154;" horiz-adv-x="620" d="M436 844 L320 844 L279 752 L324 752 L436 844 Z M501 76 L384 339 C476 359 537 431 537 527 C537 633 453 708 333 708 L55 708 L98 632 L98 76 L55 0 L229 0 L186 76 L186 334 L293 334 L403 75 L418 0 L589 0 L501 76 Z M186 651 L333 651 C396 651 440 599 440 527 C440 447 396 391 333 391 L186 391 L186 651 Z " />
<glyph glyph-name="racute" unicode="&#x155;" horiz-adv-x="406" d="M232 613 L344 780 L228 780 L187 613 L232 613 Z M37 0 L211 0 L168 76 L168 362 L245 415 C300 452 325 425 325 386 L374 386 L374 541 L334 541 L163 417 L157 417 L181 547 L37 497 L80 421 L80 76 L37 0 Z " />
<glyph glyph-name="uni0156" unicode="&#x156;" horiz-adv-x="620" d="M501 76 L384 339 C476 359 537 431 537 527 C537 633 453 708 333 708 L55 708 L98 632 L98 76 L55 0 L229 0 L186 76 L186 334 L293 334 L403 75 L418 0 L589 0 L501 76 Z M186 651 L333 651 C396 651 440 599 440 527 C440 447 396 391 333 391 L186 391 L186 651 Z M300 -40 C264 -40 236 -69 236 -106 C236 -145 266 -170 304 -170 C304 -221 278 -244 241 -255 L241 -285 C316 -271 366 -205 366 -106 C366 -69 336 -40 300 -40 L300 -40 Z " />
<glyph glyph-name="uni0157" unicode="&#x157;" horiz-adv-x="406" d="M37 0 L211 0 L168 76 L168 362 L245 415 C300 452 325 425 325 386 L374 386 L374 541 L334 541 L163 417 L157 417 L181 547 L37 497 L80 421 L80 76 L37 0 Z M64 -281 C139 -267 189 -201 189 -102 C189 -65 159 -36 123 -36 C87 -36 59 -65 59 -102 C59 -141 89 -166 127 -166 C127 -217 101 -240 64 -251 L64 -281 Z " />
<glyph glyph-name="Rcaron" unicode="&#x158;" horiz-adv-x="620" d="M336 752 L455 850 L355 850 L299 774 L246 850 L146 850 L260 752 L336 752 Z M501 76 L384 339 C476 359 537 431 537 527 C537 633 453 708 333 708 L55 708 L98 632 L98 76 L55 0 L229 0 L186 76 L186 334 L293 334 L403 75 L418 0 L589 0 L501 76 Z M186 651 L333 651 C396 651 440 599 440 527 C440 447 396 391 333 391 L186 391 L186 651 Z " />
<glyph glyph-name="rcaron" unicode="&#x159;" horiz-adv-x="406" d="M168 613 L244 613 L363 780 L263 780 L207 650 L154 780 L54 780 L168 613 Z M37 0 L211 0 L168 76 L168 362 L245 415 C300 452 325 425 325 386 L374 386 L374 541 L334 541 L163 417 L157 417 L181 547 L37 497 L80 421 L80 76 L37 0 Z " />
<glyph glyph-name="Sacute" unicode="&#x15a;" horiz-adv-x="544" d="M295 752 L407 844 L291 844 L250 752 L295 752 Z M279 -14 C387 -14 500 53 500 201 C500 343 395 379 300 411 C221 438 148 463 148 545 C148 612 196 661 274 661 C337 661 398 630 416 515 L429 519 L465 651 C445 679 372 722 277 722 C155 722 61 652 61 527 C61 399 158 363 251 329 C333 299 412 270 412 177 C412 97 353 47 270 47 C198 47 120 85 104 225 L92 221 L44 86 C88 29 192 -14 279 -14 L279 -14 Z " />
<glyph glyph-name="sacute" unicode="&#x15b;" horiz-adv-x="452" d="M260 613 L372 780 L256 780 L215 613 L260 613 Z M227 -7 C323 -7 418 44 418 157 C418 342 136 286 136 406 C136 457 180 485 232 485 C277 485 342 452 353 383 L366 381 L405 484 C382 506 312 541 233 541 C150 541 47 496 47 390 C47 209 330 252 330 141 C330 82 280 49 223 49 C168 49 101 97 85 172 L74 173 L32 58 C62 28 140 -7 227 -7 L227 -7 Z " />
<glyph glyph-name="Scircumflex" unicode="&#x15c;" horiz-adv-x="544" d="M117 752 L218 752 L271 830 L327 752 L426 752 L303 852 L236 852 L117 752 Z M279 -14 C387 -14 500 53 500 201 C500 343 395 379 300 411 C221 438 148 463 148 545 C148 612 196 661 274 661 C337 661 398 630 416 515 L429 519 L465 651 C445 679 372 722 277 722 C155 722 61 652 61 527 C61 399 158 363 251 329 C333 299 412 270 412 177 C412 97 353 47 270 47 C198 47 120 85 104 225 L92 221 L44 86 C88 29 192 -14 279 -14 L279 -14 Z " />
<glyph glyph-name="scircumflex" unicode="&#x15d;" horiz-adv-x="452" d="M82 613 L183 613 L236 743 L292 613 L391 613 L268 780 L201 780 L82 613 Z M227 -7 C323 -7 418 44 418 157 C418 342 136 286 136 406 C136 457 180 485 232 485 C277 485 342 452 353 383 L366 381 L405 484 C382 506 312 541 233 541 C150 541 47 496 47 390 C47 209 330 252 330 141 C330 82 280 49 223 49 C168 49 101 97 85 172 L74 173 L32 58 C62 28 140 -7 227 -7 L227 -7 Z " />
<glyph glyph-name="Scedilla" unicode="&#x15e;" horiz-adv-x="544" d="M500 201 C500 343 395 379 300 411 C221 438 148 463 148 545 C148 612 196 661 274 661 C337 661 398 630 416 515 L429 519 L465 651 C445 679 372 722 277 722 C155 722 61 652 61 527 C61 399 158 363 251 329 C333 299 412 270 412 177 C412 97 353 47 270 47 C198 47 120 85 104 225 L92 221 L44 86 C81 38 160 0 236 -11 L217 -75 C281 -79 294 -88 294 -108 C294 -131 267 -145 216 -145 C206 -145 191 -144 170 -143 L164 -200 C235 -212 376 -209 376 -113 C376 -79 348 -49 292 -41 L301 -13 C402 -5 500 63 500 201 L500 201 Z " />
<glyph glyph-name="scedilla" unicode="&#x15f;" horiz-adv-x="452" d="M418 157 C418 342 136 286 136 406 C136 457 180 485 232 485 C277 485 342 452 353 383 L366 381 L405 484 C382 506 312 541 233 541 C150 541 47 496 47 390 C47 209 330 252 330 141 C330 82 280 49 223 49 C168 49 101 97 85 172 L74 173 L32 58 C59 31 126 0 203 -6 L182 -75 C246 -79 259 -88 259 -108 C259 -131 232 -145 181 -145 C171 -145 156 -144 135 -143 L129 -200 C200 -212 341 -209 341 -113 C341 -79 313 -49 257 -41 L268 -4 C349 9 418 60 418 157 L418 157 Z " />
<glyph glyph-name="Scaron" unicode="&#x160;" horiz-adv-x="544" d="M231 752 L307 752 L426 850 L326 850 L270 774 L217 850 L117 850 L231 752 Z M279 -14 C387 -14 500 53 500 201 C500 343 395 379 300 411 C221 438 148 463 148 545 C148 612 196 661 274 661 C337 661 398 630 416 515 L429 519 L465 651 C445 679 372 722 277 722 C155 722 61 652 61 527 C61 399 158 363 251 329 C333 299 412 270 412 177 C412 97 353 47 270 47 C198 47 120 85 104 225 L92 221 L44 86 C88 29 192 -14 279 -14 L279 -14 Z " />
<glyph glyph-name="scaron" unicode="&#x161;" horiz-adv-x="452" d="M196 613 L272 613 L391 780 L291 780 L235 650 L182 780 L82 780 L196 613 Z M227 -7 C323 -7 418 44 418 157 C418 342 136 286 136 406 C136 457 180 485 232 485 C277 485 342 452 353 383 L366 381 L405 484 C382 506 312 541 233 541 C150 541 47 496 47 390 C47 209 330 252 330 141 C330 82 280 49 223 49 C168 49 101 97 85 172 L74 173 L32 58 C62 28 140 -7 227 -7 L227 -7 Z " />
<glyph glyph-name="uni0162" unicode="&#x162;" horiz-adv-x="571" d="M464 651 L537 609 L524 708 L47 708 L34 609 L107 651 L242 651 L242 76 L199 0 L254 0 L231 -75 C295 -79 308 -88 308 -108 C308 -131 281 -145 230 -145 C220 -145 205 -144 184 -143 L178 -200 C249 -212 390 -209 390 -113 C390 -79 362 -49 306 -41 L319 0 L373 0 L330 76 L330 651 L464 651 Z " />
<glyph glyph-name="uni0163" unicode="&#x163;" horiz-adv-x="398" d="M364 456 L364 527 L208 527 L208 722 L120 708 L120 527 L23 505 L23 456 L120 456 L120 132 C120 76 147 33 188 11 L162 11 L136 -75 C200 -79 213 -88 213 -108 C213 -131 186 -145 135 -145 C125 -145 110 -144 89 -143 L83 -200 C154 -212 295 -209 295 -113 C295 -79 267 -49 211 -41 L223 -3 C235 -6 247 -7 260 -7 C293 -7 329 3 364 26 L364 77 C340 61 315 54 292 54 C245 54 208 84 208 141 L208 456 L364 456 Z " />
<glyph glyph-name="Tcaron" unicode="&#x164;" horiz-adv-x="571" d="M245 752 L321 752 L440 850 L340 850 L284 774 L231 850 L131 850 L245 752 Z M199 0 L373 0 L330 76 L330 651 L464 651 L537 609 L524 708 L47 708 L34 609 L107 651 L242 651 L242 76 L199 0 Z " />
<glyph glyph-name="tcaron" unicode="&#x165;" horiz-adv-x="398" d="M308 591 C383 605 433 671 433 770 C433 807 403 836 367 836 C331 836 303 807 303 770 C303 731 333 706 371 706 C371 655 345 632 308 621 L308 591 Z M260 -7 C293 -7 329 3 364 26 L364 77 C340 61 315 54 292 54 C245 54 208 84 208 141 L208 456 L364 456 L364 527 L208 527 L208 722 L120 708 L120 527 L23 505 L23 456 L120 456 L120 132 C120 46 183 -7 260 -7 L260 -7 Z " />
<glyph glyph-name="Tbar" unicode="&#x166;" horiz-adv-x="571" d="M464 651 L537 609 L524 708 L47 708 L34 609 L107 651 L242 651 L242 392 L151 392 L151 316 L242 316 L242 76 L199 0 L373 0 L330 76 L330 316 L454 316 L454 392 L330 392 L330 651 L464 651 Z " />
<glyph glyph-name="tbar" unicode="&#x167;" horiz-adv-x="398" d="M364 456 L364 527 L208 527 L208 722 L120 708 L120 527 L23 505 L23 456 L120 456 L120 382 L41 382 L41 313 L120 313 L120 132 C120 46 183 -7 260 -7 C293 -7 329 3 364 26 L364 77 C340 61 315 54 292 54 C245 54 208 84 208 141 L208 313 L344 313 L344 382 L208 382 L208 456 L364 456 Z " />
<glyph glyph-name="Utilde" unicode="&#x168;" horiz-adv-x="670" d="M405 747 C437 747 458 768 471 834 L433 834 C423 746 357 842 294 842 C257 842 232 817 219 755 L259 755 C269 840 324 747 405 747 L405 747 Z M335 -14 C510 -14 580 100 580 203 L580 631 L623 708 L458 708 L501 631 L501 203 C501 81 408 47 344 47 C271 47 186 94 186 203 L186 631 L229 708 L46 708 L89 631 L89 216 C89 64 215 -14 335 -14 L335 -14 Z " />
<glyph glyph-name="utilde" unicode="&#x169;" horiz-adv-x="587" d="M369 620 C417 620 474 651 465 733 L418 733 C420 701 397 689 381 689 C346 689 295 751 233 751 C183 751 121 712 131 640 L181 640 C181 669 203 680 217 680 C248 680 302 620 369 620 L369 620 Z M242 -7 C362 -7 410 74 437 147 L443 147 L422 0 L553 0 L510 76 L510 527 L379 527 L422 451 L422 251 C411 161 368 55 264 55 C162 55 162 158 162 174 L162 527 L31 527 L74 451 L74 187 C74 153 74 -7 242 -7 L242 -7 Z " />
<glyph glyph-name="Umacron" unicode="&#x16a;" horiz-adv-x="670" d="M229 767 L461 767 L461 817 L229 817 L229 767 Z M335 -14 C510 -14 580 100 580 203 L580 631 L623 708 L458 708 L501 631 L501 203 C501 81 408 47 344 47 C271 47 186 94 186 203 L186 631 L229 708 L46 708 L89 631 L89 216 C89 64 215 -14 335 -14 L335 -14 Z " />
<glyph glyph-name="umacron" unicode="&#x16b;" horiz-adv-x="587" d="M140 625 L456 625 L456 695 L140 695 L140 625 Z M242 -7 C362 -7 410 74 437 147 L443 147 L422 0 L553 0 L510 76 L510 527 L379 527 L422 451 L422 251 C411 161 368 55 264 55 C162 55 162 158 162 174 L162 527 L31 527 L74 451 L74 187 C74 153 74 -7 242 -7 L242 -7 Z " />
<glyph glyph-name="Ubreve" unicode="&#x16c;" horiz-adv-x="670" d="M344 750 C403 750 448 779 463 849 L436 849 C416 810 381 800 344 800 C310 800 274 811 254 849 L226 849 C242 777 285 750 344 750 L344 750 Z M335 -14 C510 -14 580 100 580 203 L580 631 L623 708 L458 708 L501 631 L501 203 C501 81 408 47 344 47 C271 47 186 94 186 203 L186 631 L229 708 L46 708 L89 631 L89 216 C89 64 215 -14 335 -14 L335 -14 Z " />
<glyph glyph-name="ubreve" unicode="&#x16d;" horiz-adv-x="587" d="M297 604 C381 604 452 652 442 752 L399 752 C391 687 342 665 297 665 C256 665 204 688 197 752 L153 752 C144 649 213 604 297 604 L297 604 Z M242 -7 C362 -7 410 74 437 147 L443 147 L422 0 L553 0 L510 76 L510 527 L379 527 L422 451 L422 251 C411 161 368 55 264 55 C162 55 162 158 162 174 L162 527 L31 527 L74 451 L74 187 C74 153 74 -7 242 -7 L242 -7 Z " />
<glyph glyph-name="Uring" unicode="&#x16e;" horiz-adv-x="670" d="M344 657 C392 657 432 697 432 746 C432 794 392 836 344 836 C296 836 256 796 256 748 C256 696 296 657 344 657 L344 657 Z M345 708 C322 708 307 725 307 748 C307 767 323 786 345 786 C365 786 383 767 383 747 C383 726 364 708 345 708 L345 708 Z M335 -14 C510 -14 580 100 580 203 L580 631 L623 708 L458 708 L501 631 L501 203 C501 81 408 47 344 47 C271 47 186 94 186 203 L186 631 L229 708 L46 708 L89 631 L89 216 C89 64 215 -14 335 -14 L335 -14 Z " />
<glyph glyph-name="uring" unicode="&#x16f;" horiz-adv-x="587" d="M298 609 C346 609 386 649 386 698 C386 746 346 788 298 788 C250 788 210 748 210 700 C210 648 250 609 298 609 L298 609 Z M299 660 C276 660 261 677 261 700 C261 719 277 738 299 738 C319 738 337 719 337 699 C337 678 318 660 299 660 L299 660 Z M242 -7 C362 -7 410 74 437 147 L443 147 L422 0 L553 0 L510 76 L510 527 L379 527 L422 451 L422 251 C411 161 368 55 264 55 C162 55 162 158 162 174 L162 527 L31 527 L74 451 L74 187 C74 153 74 -7 242 -7 L242 -7 Z " />
<glyph glyph-name="Uhungarumlaut" unicode="&#x170;" horiz-adv-x="670" d="M211 752 L261 752 L361 850 L254 850 L211 752 Z M358 752 L410 752 L521 850 L415 850 L358 752 Z M335 -14 C510 -14 580 100 580 203 L580 631 L623 708 L458 708 L501 631 L501 203 C501 81 408 47 344 47 C271 47 186 94 186 203 L186 631 L229 708 L46 708 L89 631 L89 216 C89 64 215 -14 335 -14 L335 -14 Z " />
<glyph glyph-name="uhungarumlaut" unicode="&#x171;" horiz-adv-x="587" d="M184 613 L238 613 L345 780 L230 780 L184 613 Z M341 613 L397 613 L516 780 L403 780 L341 613 Z M242 -7 C362 -7 410 74 437 147 L443 147 L422 0 L553 0 L510 76 L510 527 L379 527 L422 451 L422 251 C411 161 368 55 264 55 C162 55 162 158 162 174 L162 527 L31 527 L74 451 L74 187 C74 153 74 -7 242 -7 L242 -7 Z " />
<glyph glyph-name="Uogonek" unicode="&#x172;" horiz-adv-x="670" d="M458 708 L501 631 L501 203 C501 81 408 47 344 47 C271 47 186 94 186 203 L186 631 L229 708 L46 708 L89 631 L89 216 C89 76 196 -1 307 -13 C273 -45 254 -84 254 -120 C254 -210 349 -233 419 -172 L419 -130 C384 -152 327 -145 327 -93 C327 -63 342 -35 368 -13 C519 1 580 107 580 203 L580 631 L623 708 L458 708 Z " />
<glyph glyph-name="uogonek" unicode="&#x173;" horiz-adv-x="587" d="M492 -83 C492 -52 508 -23 537 0 L553 0 L548 9 C549 9 549 10 550 10 L547 10 L510 76 L510 527 L379 527 L422 451 L422 251 C411 161 368 55 264 55 C162 55 162 158 162 174 L162 527 L31 527 L74 451 L74 187 C74 153 74 -7 242 -7 C362 -7 410 74 437 147 L443 147 L422 0 L474 0 C439 -33 419 -73 419 -110 C419 -200 514 -223 584 -162 L584 -120 C549 -142 492 -135 492 -83 L492 -83 Z " />
<glyph glyph-name="Wcircumflex" unicode="&#x174;" horiz-adv-x="1015" d="M507 830 L563 752 L662 752 L539 852 L472 852 L353 752 L454 752 L507 830 Z M819 708 L840 632 L699 146 L580 632 L604 708 L429 708 L454 633 L334 143 L193 632 L214 708 L31 708 L97 632 L290 0 L368 0 L509 542 L650 0 L728 0 L921 632 L987 708 L819 708 Z " />
<glyph glyph-name="wcircumflex" unicode="&#x175;" horiz-adv-x="889" d="M451 743 L507 613 L606 613 L483 780 L416 780 L297 613 L398 613 L451 743 Z M712 527 L729 451 L623 81 L500 451 L530 527 L374 527 L404 451 L289 81 L175 451 L192 527 L19 527 L79 451 L228 0 L326 0 L445 336 L563 0 L661 0 L810 451 L870 527 L712 527 Z " />
<glyph glyph-name="Ycircumflex" unicode="&#x176;" horiz-adv-x="614" d="M306 830 L362 752 L461 752 L338 852 L271 852 L152 752 L253 752 L306 830 Z M500 626 L586 708 L414 708 L416 626 L313 425 L220 625 L222 708 L28 708 L115 626 L263 350 L263 77 L220 0 L394 0 L351 76 L351 350 L500 626 Z " />
<glyph glyph-name="ycircumflex" unicode="&#x177;" horiz-adv-x="554" d="M307 743 L363 613 L462 613 L339 780 L272 780 L153 613 L254 613 L307 743 Z M377 527 L394 451 L289 82 L175 451 L192 527 L19 527 L79 451 L228 0 L248 0 L190 -129 L110 -205 L294 -205 L270 -129 L318 0 L326 0 L475 451 L535 527 L377 527 Z " />
<glyph glyph-name="Ydieresis" unicode="&#x178;" horiz-adv-x="614" d="M227 755 C254 755 276 775 276 802 C276 830 254 851 227 851 C200 851 180 830 180 802 C180 775 200 755 227 755 L227 755 Z M383 755 C410 755 433 775 433 802 C433 830 410 851 383 851 C357 851 336 830 336 802 C336 775 357 755 383 755 L383 755 Z M500 626 L586 708 L414 708 L416 626 L313 425 L220 625 L222 708 L28 708 L115 626 L263 350 L263 77 L220 0 L394 0 L351 76 L351 350 L500 626 Z " />
<glyph glyph-name="Zacute" unicode="&#x179;" horiz-adv-x="545" d="M402 844 L286 844 L245 752 L290 752 L402 844 Z M391 57 L148 57 L490 649 L490 708 L72 708 L62 594 L158 641 L376 641 L43 59 L43 0 L490 0 L500 114 L391 57 Z " />
<glyph glyph-name="zacute" unicode="&#x17a;" horiz-adv-x="472" d="M375 780 L259 780 L218 613 L263 613 L375 780 Z M433 527 L46 527 L46 413 L134 458 L314 458 L37 53 L37 0 L433 0 L433 114 L344 69 L149 69 L433 478 L433 527 Z " />
<glyph glyph-name="Zdotaccent" unicode="&#x17b;" horiz-adv-x="545" d="M267 748 C297 748 323 772 323 802 C323 834 297 858 267 858 C237 858 213 834 213 802 C213 772 237 748 267 748 L267 748 Z M391 57 L148 57 L490 649 L490 708 L72 708 L62 594 L158 641 L376 641 L43 59 L43 0 L490 0 L500 114 L391 57 Z " />
<glyph glyph-name="zdotaccent" unicode="&#x17c;" horiz-adv-x="472" d="M239 611 C275 611 305 639 305 675 C305 712 275 741 239 741 C203 741 175 712 175 675 C175 639 203 611 239 611 L239 611 Z M433 527 L46 527 L46 413 L134 458 L314 458 L37 53 L37 0 L433 0 L433 114 L344 69 L149 69 L433 478 L433 527 Z " />
<glyph glyph-name="Zcaron" unicode="&#x17d;" horiz-adv-x="545" d="M302 752 L421 850 L321 850 L265 774 L212 850 L112 850 L226 752 L302 752 Z M391 57 L148 57 L490 649 L490 708 L72 708 L62 594 L158 641 L376 641 L43 59 L43 0 L490 0 L500 114 L391 57 Z " />
<glyph glyph-name="zcaron" unicode="&#x17e;" horiz-adv-x="472" d="M275 613 L394 780 L294 780 L238 650 L185 780 L85 780 L199 613 L275 613 Z M433 527 L46 527 L46 413 L134 458 L314 458 L37 53 L37 0 L433 0 L433 114 L344 69 L149 69 L433 478 L433 527 Z " />
<glyph glyph-name="florin" unicode="&#x192;" horiz-adv-x="671" d="M65 -219 C186 -308 260 -191 293 -54 L414 456 L545 456 L561 527 L430 527 L440 572 C460 663 548 675 581 611 L605 718 C515 741 383 699 353 573 L342 527 L256 505 L245 456 L326 456 L208 -54 C168 -228 91 -134 91 -134 L65 -219 Z " />
<glyph glyph-name="AEacute" unicode="&#x1fc;" horiz-adv-x="916" d="M669 844 L553 844 L512 752 L557 752 L669 844 Z M568 67 L568 350 L751 350 L804 318 L824 450 L750 418 L568 418 L568 641 L795 641 L867 609 L854 708 L437 708 L466 658 L107 76 L18 0 L193 0 L195 77 L274 208 L480 208 L480 77 L437 0 L854 0 L867 99 L794 67 L568 67 Z M315 276 L480 549 L480 276 L315 276 Z " />
<glyph glyph-name="aeacute" unicode="&#x1fd;" horiz-adv-x="837" d="M577 780 L461 780 L420 613 L465 613 L577 780 Z M757 157 C734 110 674 77 614 77 C532 77 471 149 457 255 L798 303 C799 447 711 541 588 541 C522 541 466 508 427 455 C395 512 329 541 251 541 C178 541 102 511 56 468 L94 357 L105 358 C140 442 178 480 240 480 C308 480 360 431 360 344 L360 324 L247 300 C115 269 32 230 32 130 C32 52 95 -7 194 -7 C281 -7 361 38 405 118 C445 43 516 -7 603 -7 C680 -7 752 36 800 123 L757 157 Z M577 480 C642 480 692 425 699 349 L454 313 C459 421 523 480 577 480 L577 480 Z M210 54 C154 54 127 93 127 136 C127 200 172 218 253 239 L360 263 L360 193 C348 109 280 54 210 54 L210 54 Z " />
<glyph glyph-name="Oslashacute" unicode="&#x1fe;" horiz-adv-x="790" d="M531 844 L415 844 L374 752 L419 752 L531 844 Z M603 652 L641 724 L541 724 L527 697 C487 713 442 722 395 722 C192 722 47 557 47 354 C47 231 100 122 188 55 L150 -16 L251 -16 L265 11 C305 -5 348 -14 395 -14 C598 -14 743 151 743 354 C743 477 690 586 603 652 L603 652 Z M134 393 C134 565 253 661 370 661 C412 661 453 649 490 627 L231 137 C171 203 134 297 134 393 L134 393 Z M422 47 C378 47 338 59 302 80 L560 571 C618 508 656 420 656 322 C656 167 560 47 422 47 L422 47 Z " />
<glyph glyph-name="oslashacute" unicode="&#x1ff;" horiz-adv-x="568" d="M419 780 L303 780 L262 613 L307 613 L419 780 Z M463 456 C483 479 504 503 526 527 L421 541 C414 530 408 520 402 509 C367 529 328 541 284 541 C142 541 41 419 41 267 C41 193 65 125 107 76 C86 51 65 26 42 1 L148 -13 L170 23 C203 4 242 -7 284 -7 C426 -7 527 116 527 267 C527 340 504 407 463 456 L463 456 Z M125 301 C125 417 195 480 263 480 C298 480 331 464 359 439 C298 340 238 245 166 150 C140 194 125 247 125 301 L125 301 Z M305 54 C271 54 239 69 212 93 C272 191 332 287 404 381 C428 338 443 286 443 234 C443 126 380 54 305 54 L305 54 Z " />
<glyph glyph-name="uni0218" unicode="&#x218;" horiz-adv-x="544" d="M279 -14 C387 -14 500 53 500 201 C500 343 395 379 300 411 C221 438 148 463 148 545 C148 612 196 661 274 661 C337 661 398 630 416 515 L429 519 L465 651 C445 679 372 722 277 722 C155 722 61 652 61 527 C61 399 158 363 251 329 C333 299 412 270 412 177 C412 97 353 47 270 47 C198 47 120 85 104 225 L92 221 L44 86 C88 29 192 -14 279 -14 L279 -14 Z M212 -285 C287 -271 337 -205 337 -106 C337 -69 307 -40 271 -40 C235 -40 207 -69 207 -106 C207 -145 237 -170 275 -170 C275 -221 249 -244 212 -255 L212 -285 Z " />
<glyph glyph-name="uni0219" unicode="&#x219;" horiz-adv-x="452" d="M227 -7 C323 -7 418 44 418 157 C418 342 136 286 136 406 C136 457 180 485 232 485 C277 485 342 452 353 383 L366 381 L405 484 C382 506 312 541 233 541 C150 541 47 496 47 390 C47 209 330 252 330 141 C330 82 280 49 223 49 C168 49 101 97 85 172 L74 173 L32 58 C62 28 140 -7 227 -7 L227 -7 Z M177 -281 C252 -267 302 -201 302 -102 C302 -65 272 -36 236 -36 C200 -36 172 -65 172 -102 C172 -141 202 -166 240 -166 C240 -217 214 -240 177 -251 L177 -281 Z " />
<glyph glyph-name="uni021A" unicode="&#x21a;" horiz-adv-x="571" d="M199 0 L373 0 L330 76 L330 651 L464 651 L537 609 L524 708 L47 708 L34 609 L107 651 L242 651 L242 76 L199 0 Z M226 -285 C301 -271 351 -205 351 -106 C351 -69 321 -40 285 -40 C249 -40 221 -69 221 -106 C221 -145 251 -170 289 -170 C289 -221 263 -244 226 -255 L226 -285 Z " />
<glyph glyph-name="uni021B" unicode="&#x21b;" horiz-adv-x="398" d="M260 -7 C293 -7 329 3 364 26 L364 77 C340 61 315 54 292 54 C245 54 208 84 208 141 L208 456 L364 456 L364 527 L208 527 L208 722 L120 708 L120 527 L23 505 L23 456 L120 456 L120 132 C120 46 183 -7 260 -7 L260 -7 Z M131 -281 C206 -267 256 -201 256 -102 C256 -65 226 -36 190 -36 C154 -36 126 -65 126 -102 C126 -141 156 -166 194 -166 C194 -217 168 -240 131 -251 L131 -281 Z " />
<glyph glyph-name="uni0237" unicode="&#x237;" horiz-adv-x="243" d="M-13 -198 C93 -198 169 -129 169 -23 L169 527 L38 527 L81 456 L81 77 C81 -77 91 -128 -13 -134 L-13 -198 Z " />
<glyph glyph-name="circumflex" unicode="&#x2c6;" horiz-adv-x="363" d="M27 613 L128 613 L181 743 L237 613 L336 613 L213 780 L146 780 L27 613 Z " />
<glyph glyph-name="caron" unicode="&#x2c7;" horiz-adv-x="363" d="M149 613 L225 613 L344 780 L244 780 L188 650 L135 780 L35 780 L149 613 Z " />
<glyph glyph-name="breve" unicode="&#x2d8;" horiz-adv-x="363" d="M181 614 C265 614 336 662 326 762 L283 762 C275 697 226 675 181 675 C140 675 88 698 81 762 L37 762 C28 659 97 614 181 614 L181 614 Z " />
<glyph glyph-name="dotaccent" unicode="&#x2d9;" horiz-adv-x="130" d="M64 611 C100 611 130 639 130 675 C130 712 100 741 64 741 C28 741 0 712 0 675 C0 639 28 611 64 611 L64 611 Z " />
<glyph glyph-name="ring" unicode="&#x2da;" horiz-adv-x="363" d="M182 592 C230 592 270 632 270 681 C270 729 230 771 182 771 C134 771 94 731 94 683 C94 631 134 592 182 592 L182 592 Z M183 643 C160 643 145 660 145 683 C145 702 161 721 183 721 C203 721 221 702 221 682 C221 661 202 643 183 643 L183 643 Z " />
<glyph glyph-name="ogonek" unicode="&#x2db;" horiz-adv-x="363" d="M217 -172 L217 -130 C182 -152 125 -145 125 -93 C125 -57 146 -25 183 0 L119 0 C76 -35 52 -79 52 -120 C52 -210 147 -233 217 -172 L217 -172 Z " />
<glyph glyph-name="tilde" unicode="&#x2dc;" horiz-adv-x="363" d="M254 595 C302 595 359 626 350 708 L303 708 C305 676 282 664 266 664 C231 664 180 726 118 726 C68 726 6 687 16 615 L66 615 C66 644 88 655 102 655 C133 655 187 595 254 595 L254 595 Z " />
<glyph glyph-name="hungarumlaut" unicode="&#x2dd;" horiz-adv-x="332" d="M0 613 L54 613 L161 780 L46 780 L0 613 Z M157 613 L213 613 L332 780 L219 780 L157 613 Z " />
<glyph glyph-name="gravecomb" unicode="&#x300;" d="M-45 613 L0 613 L-41 780 L-157 780 L-45 613 Z " />
<glyph glyph-name="acutecomb" unicode="&#x301;" d="M-2 613 L110 780 L-6 780 L-47 613 L-2 613 Z " />
<glyph glyph-name="uni0302" unicode="&#x302;" d="M-309 613 L-208 613 L-155 743 L-99 613 L0 613 L-123 780 L-190 780 L-309 613 Z " />
<glyph glyph-name="tildecomb" unicode="&#x303;" d="M-96 620 C-48 620 9 651 0 733 L-47 733 C-45 701 -68 689 -84 689 C-119 689 -170 751 -232 751 C-282 751 -344 712 -334 640 L-284 640 C-284 669 -262 680 -248 680 C-217 680 -163 620 -96 620 L-96 620 Z " />
<glyph glyph-name="uni0304" unicode="&#x304;" d="M-331 625 L-15 625 L-15 695 L-331 695 L-331 625 Z " />
<glyph glyph-name="uni0306" unicode="&#x306;" d="M-146 604 C-62 604 9 652 -1 752 L-44 752 C-52 687 -101 665 -146 665 C-187 665 -239 688 -246 752 L-290 752 C-299 649 -230 604 -146 604 L-146 604 Z " />
<glyph glyph-name="uni0307" unicode="&#x307;" d="M-66 611 C-30 611 0 639 0 675 C0 712 -30 741 -66 741 C-102 741 -130 712 -130 675 C-130 639 -102 611 -66 611 L-66 611 Z " />
<glyph glyph-name="uni0308" unicode="&#x308;" d="M-242 614 C-211 614 -184 639 -184 670 C-184 703 -211 728 -242 728 C-274 728 -298 703 -298 670 C-298 639 -274 614 -242 614 L-242 614 Z M-58 614 C-27 614 0 639 0 670 C0 703 -27 728 -58 728 C-90 728 -114 703 -114 670 C-114 639 -90 614 -58 614 L-58 614 Z " />
<glyph glyph-name="uni030A" unicode="&#x30a;" d="M-88 609 C-40 609 0 649 0 698 C0 746 -40 788 -88 788 C-136 788 -176 748 -176 700 C-176 648 -136 609 -88 609 L-88 609 Z M-87 660 C-110 660 -125 677 -125 700 C-125 719 -109 738 -87 738 C-67 738 -49 719 -49 699 C-49 678 -68 660 -87 660 L-87 660 Z " />
<glyph glyph-name="uni030B" unicode="&#x30b;" d="M-213 613 L-159 613 L-52 780 L-167 780 L-213 613 Z M-56 613 L0 613 L119 780 L6 780 L-56 613 Z " />
<glyph glyph-name="uni030C" unicode="&#x30c;" d="M-195 613 L-119 613 L0 780 L-100 780 L-156 650 L-209 780 L-309 780 L-195 613 Z " />
<glyph glyph-name="uni0312" unicode="&#x312;" d="M-125 -445 C-50 -431 0 -365 0 -266 C0 -229 -30 -200 -66 -200 C-102 -200 -130 -229 -130 -266 C-130 -305 -100 -330 -62 -330 C-62 -381 -88 -404 -125 -415 L-125 -445 Z " />
<glyph glyph-name="uni0326" unicode="&#x326;" d="M-161 -281 C-86 -267 -36 -201 -36 -102 C-36 -65 -66 -36 -102 -36 C-138 -36 -166 -65 -166 -102 C-166 -141 -136 -166 -98 -166 C-98 -217 -124 -240 -161 -251 L-161 -281 Z " />
<glyph glyph-name="uni0327" unicode="&#x327;" d="M-212 -200 C-141 -212 0 -209 0 -113 C0 -79 -28 -49 -84 -41 L-68 11 L-133 11 L-159 -75 C-95 -79 -82 -88 -82 -108 C-82 -131 -109 -145 -160 -145 C-170 -145 -185 -144 -206 -143 L-212 -200 Z " />
<glyph glyph-name="uni0328" unicode="&#x328;" d="M0 -172 L0 -130 C-35 -152 -92 -145 -92 -93 C-92 -57 -71 -25 -34 0 L-98 0 C-141 -35 -165 -79 -165 -120 C-165 -210 -70 -233 0 -172 L0 -172 Z " />
<glyph glyph-name="uni0335" unicode="&#x335;" d="M-286 224 L17 224 L17 300 L-286 300 L-286 224 Z " />
<glyph glyph-name="uni0336" unicode="&#x336;" d="M-606 224 L20 224 L20 300 L-606 300 L-606 224 Z " />
<glyph glyph-name="uni0337" unicode="&#x337;" d="M-289 232 L-1 410 L-1 493 L-289 314 L-289 232 Z " />
<glyph glyph-name="uni0338" unicode="&#x338;" d="M-491 -12 L-390 -12 L0 728 L-100 728 L-491 -12 Z " />
<glyph glyph-name="Wgrave" unicode="&#x1e80;" horiz-adv-x="1015" d="M532 752 L491 844 L375 844 L487 752 L532 752 Z M819 708 L840 632 L699 146 L580 632 L604 708 L429 708 L454 633 L334 143 L193 632 L214 708 L31 708 L97 632 L290 0 L368 0 L509 542 L650 0 L728 0 L921 632 L987 708 L819 708 Z " />
<glyph glyph-name="wgrave" unicode="&#x1e81;" horiz-adv-x="889" d="M476 613 L435 780 L319 780 L431 613 L476 613 Z M712 527 L729 451 L623 81 L500 451 L530 527 L374 527 L404 451 L289 81 L175 451 L192 527 L19 527 L79 451 L228 0 L326 0 L445 336 L563 0 L661 0 L810 451 L870 527 L712 527 Z " />
<glyph glyph-name="Wacute" unicode="&#x1e82;" horiz-adv-x="1015" d="M643 844 L527 844 L486 752 L531 752 L643 844 Z M819 708 L840 632 L699 146 L580 632 L604 708 L429 708 L454 633 L334 143 L193 632 L214 708 L31 708 L97 632 L290 0 L368 0 L509 542 L650 0 L728 0 L921 632 L987 708 L819 708 Z " />
<glyph glyph-name="wacute" unicode="&#x1e83;" horiz-adv-x="889" d="M587 780 L471 780 L430 613 L475 613 L587 780 Z M712 527 L729 451 L623 81 L500 451 L530 527 L374 527 L404 451 L289 81 L175 451 L192 527 L19 527 L79 451 L228 0 L326 0 L445 336 L563 0 L661 0 L810 451 L870 527 L712 527 Z " />
<glyph glyph-name="Wdieresis" unicode="&#x1e84;" horiz-adv-x="1015" d="M428 755 C455 755 477 775 477 802 C477 830 455 851 428 851 C401 851 381 830 381 802 C381 775 401 755 428 755 L428 755 Z M584 755 C611 755 634 775 634 802 C634 830 611 851 584 851 C558 851 537 830 537 802 C537 775 558 755 584 755 L584 755 Z M819 708 L840 632 L699 146 L580 632 L604 708 L429 708 L454 633 L334 143 L193 632 L214 708 L31 708 L97 632 L290 0 L368 0 L509 542 L650 0 L728 0 L921 632 L987 708 L819 708 Z " />
<glyph glyph-name="wdieresis" unicode="&#x1e85;" horiz-adv-x="889" d="M359 614 C390 614 417 639 417 670 C417 703 390 728 359 728 C327 728 303 703 303 670 C303 639 327 614 359 614 L359 614 Z M543 614 C574 614 601 639 601 670 C601 703 574 728 543 728 C511 728 487 703 487 670 C487 639 511 614 543 614 L543 614 Z M712 527 L729 451 L623 81 L500 451 L530 527 L374 527 L404 451 L289 81 L175 451 L192 527 L19 527 L79 451 L228 0 L326 0 L445 336 L563 0 L661 0 L810 451 L870 527 L712 527 Z " />
<glyph glyph-name="Ygrave" unicode="&#x1ef2;" horiz-adv-x="614" d="M331 752 L290 844 L174 844 L286 752 L331 752 Z M500 626 L586 708 L414 708 L416 626 L313 425 L220 625 L222 708 L28 708 L115 626 L263 350 L263 77 L220 0 L394 0 L351 76 L351 350 L500 626 Z " />
<glyph glyph-name="ygrave" unicode="&#x1ef3;" horiz-adv-x="554" d="M332 613 L291 780 L175 780 L287 613 L332 613 Z M377 527 L394 451 L289 82 L175 451 L192 527 L19 527 L79 451 L228 0 L248 0 L190 -129 L110 -205 L294 -205 L270 -129 L318 0 L326 0 L475 451 L535 527 L377 527 Z " />
<glyph glyph-name="endash" unicode="&#x2013;" horiz-adv-x="612" d="M44 224 L568 224 L568 300 L44 300 L44 224 Z " />
<glyph glyph-name="emdash" unicode="&#x2014;" horiz-adv-x="982" d="M44 224 L938 224 L938 300 L44 300 L44 224 Z " />
<glyph glyph-name="quoteleft" unicode="&#x2018;" horiz-adv-x="202" d="M161 717 C86 703 36 637 36 538 C36 501 66 472 102 472 C138 472 166 501 166 538 C166 577 136 602 98 602 C98 653 124 676 161 687 L161 717 Z " />
<glyph glyph-name="quoteright" unicode="&#x2019;" horiz-adv-x="202" d="M41 472 C116 486 166 552 166 651 C166 688 136 717 100 717 C64 717 36 688 36 651 C36 612 66 587 104 587 C104 536 78 513 41 502 L41 472 Z " />
<glyph glyph-name="quotesinglbase" unicode="&#x201a;" horiz-adv-x="202" d="M41 -115 C116 -101 166 -35 166 64 C166 101 136 130 100 130 C64 130 36 101 36 64 C36 25 66 0 104 0 C104 -51 78 -74 41 -85 L41 -115 Z " />
<glyph glyph-name="quotedblleft" unicode="&#x201c;" horiz-adv-x="372" d="M92 466 C128 466 156 495 156 532 C156 571 126 596 88 596 C88 647 114 670 151 681 L151 711 C77 697 25 631 26 532 C26 495 56 466 92 466 L92 466 Z M265 466 C301 466 329 495 329 532 C329 571 299 596 261 596 C261 647 287 670 324 681 L324 711 C250 697 198 631 199 532 C199 495 229 466 265 466 L265 466 Z " />
<glyph glyph-name="quotedblright" unicode="&#x201d;" horiz-adv-x="375" d="M41 469 C116 483 166 549 166 648 C166 685 136 714 100 714 C64 714 36 685 36 648 C36 609 66 584 104 584 C104 533 78 510 41 499 L41 469 Z M214 469 C289 483 339 549 339 648 C339 685 309 714 273 714 C237 714 209 685 209 648 C209 609 239 584 277 584 C277 533 251 510 214 499 L214 469 Z " />
<glyph glyph-name="quotedblbase" unicode="&#x201e;" horiz-adv-x="375" d="M41 -115 C116 -101 166 -35 166 64 C166 101 136 130 100 130 C64 130 36 101 36 64 C36 25 66 0 104 0 C104 -51 78 -74 41 -85 L41 -115 Z M214 -115 C289 -101 339 -35 339 64 C339 101 309 130 273 130 C237 130 209 101 209 64 C209 25 239 0 277 0 C277 -51 251 -74 214 -85 L214 -115 Z " />
<glyph glyph-name="dagger" unicode="&#x2020;" horiz-adv-x="597" d="M253 -169 L341 -169 L341 423 L538 423 L538 501 L341 501 L341 699 L253 699 L253 501 L59 501 L59 423 L253 423 L253 -169 Z " />
<glyph glyph-name="daggerdbl" unicode="&#x2021;" horiz-adv-x="615" d="M263 -169 L351 -169 L351 12 L548 12 L548 90 L351 90 L351 444 L548 444 L548 523 L351 523 L351 706 L263 706 L263 523 L67 523 L67 444 L263 444 L263 90 L67 90 L67 12 L263 12 L263 -169 Z " />
<glyph glyph-name="bullet" unicode="&#x2022;" horiz-adv-x="326" d="M165 216 C237 216 297 272 297 344 C297 418 237 476 165 476 C93 476 37 418 37 344 C37 272 93 216 165 216 L165 216 Z " />
<glyph glyph-name="ellipsis" unicode="&#x2026;" horiz-adv-x="664" d="M100 0 C136 0 166 28 166 64 C166 101 136 130 100 130 C64 130 36 101 36 64 C36 28 64 0 100 0 L100 0 Z M331 0 C367 0 397 28 397 64 C397 101 367 130 331 130 C295 130 267 101 267 64 C267 28 295 0 331 0 L331 0 Z M562 0 C598 0 628 28 628 64 C628 101 598 130 562 130 C526 130 498 101 498 64 C498 28 526 0 562 0 L562 0 Z " />
<glyph glyph-name="perthousand" unicode="&#x2030;" horiz-adv-x="1224" d="M231 341 C325 341 393 428 393 535 C393 641 325 728 231 728 C137 728 69 641 69 535 C69 428 137 341 231 341 L231 341 Z M78 -12 L181 -12 C360 235 557 481 776 728 L674 728 C495 481 297 235 78 -12 L78 -12 Z M243 388 C191 388 154 456 154 554 C154 630 182 682 220 682 C271 682 308 615 308 519 C308 442 281 388 243 388 L243 388 Z M629 -7 C723 -7 791 80 791 187 C791 293 723 380 629 380 C535 380 467 293 467 187 C467 80 535 -7 629 -7 L629 -7 Z M996 -7 C1090 -7 1158 80 1158 187 C1158 293 1090 380 996 380 C902 380 834 293 834 187 C834 80 902 -7 996 -7 L996 -7 Z M641 40 C589 40 552 108 552 206 C552 282 580 334 618 334 C669 334 706 267 706 171 C706 94 679 40 641 40 L641 40 Z M1008 40 C956 40 919 108 919 206 C919 282 947 334 985 334 C1036 334 1073 267 1073 171 C1073 94 1046 40 1008 40 L1008 40 Z " />
<glyph glyph-name="guilsinglleft" unicode="&#x2039;" horiz-adv-x="514" d="M444 60 L444 147 L141 354 L444 559 L444 645 L70 395 L70 313 L444 60 Z " />
<glyph glyph-name="guilsinglright" unicode="&#x203a;" horiz-adv-x="514" d="M70 60 L444 313 L444 395 L70 645 L70 559 L373 354 L70 147 L70 60 Z " />
<glyph glyph-name="fraction" unicode="&#x2044;" horiz-adv-x="308" d="M15 -22 L86 -22 L293 718 L223 718 C154 471 84 225 15 -22 L15 -22 Z " />
<glyph glyph-name="Euro" unicode="&#x20ac;" horiz-adv-x="876" d="M757 130 C724 89 669 47 584 47 C472 47 378 128 331 235 L674 235 L691 298 L309 298 C301 329 297 361 297 393 L297 401 L718 401 L735 463 L304 463 C332 590 433 661 533 661 C629 661 702 613 744 508 L754 508 L787 635 C727 689 650 722 558 722 C393 722 266 613 225 463 L127 463 L110 401 L213 401 C211 386 210 370 210 354 C210 335 211 316 214 298 L83 298 L66 235 L228 235 C272 90 397 -14 558 -14 C675 -14 753 38 799 83 L757 130 Z " />
<glyph glyph-name="trademark" unicode="&#x2122;" horiz-adv-x="811" d="M70 706 L63 648 L100 670 L169 670 L169 390 L150 352 L249 352 L229 390 L229 670 L298 670 L335 648 L328 706 L70 706 Z M704 668 L725 706 L646 706 L550 499 L455 706 L371 706 L391 670 L391 390 L371 352 L455 352 L435 390 L435 606 L531 401 L547 401 L646 606 L646 390 L627 352 L724 352 L704 390 L704 668 Z " />
<glyph glyph-name="arrowleft" unicode="&#x2190;" horiz-adv-x="832" d="M451 392 C301 392 250 392 168 394 C215 454 267 514 348 574 L238 574 L74 351 L238 128 L348 128 C268 187 216 247 168 307 C251 310 301 311 451 311 C639 311 681 309 791 290 L791 411 C681 392 639 392 451 392 L451 392 Z " />
<glyph glyph-name="arrowup" unicode="&#x2191;" horiz-adv-x="606" d="M303 727 L80 563 L80 453 C140 534 200 586 260 633 C262 551 262 500 262 350 C262 162 262 120 243 10 L364 10 C345 120 343 162 343 350 C343 500 344 550 347 633 C407 585 467 533 526 453 L526 563 L303 727 Z " />
<glyph glyph-name="arrowright" unicode="&#x2192;" horiz-adv-x="832" d="M594 574 L484 574 C565 514 617 454 664 394 C582 392 531 392 381 392 C193 392 151 392 41 411 L41 290 C151 309 193 311 381 311 C531 311 581 310 664 307 C616 247 564 187 484 128 L594 128 L758 351 L594 574 Z " />
<glyph glyph-name="arrowdown" unicode="&#x2193;" horiz-adv-x="606" d="M347 117 C344 200 343 250 343 400 C343 588 345 630 364 740 L243 740 C262 630 262 588 262 400 C262 250 262 199 260 117 C200 164 140 216 80 297 L80 187 L303 23 L526 187 L526 297 C467 217 407 165 347 117 L347 117 Z " />
<glyph glyph-name="arrowboth" unicode="&#x2194;" horiz-adv-x="865" d="M644 600 L584 600 L727 406 C644 405 589 404 424 404 C274 404 220 405 138 406 L281 600 L221 600 L57 377 L221 154 L281 154 L138 349 C219 350 273 350 424 350 C589 350 645 350 727 349 L584 154 L644 154 L808 377 L644 600 Z " />
<glyph glyph-name="arrowupdn" unicode="&#x2195;" horiz-adv-x="606" d="M332 646 L526 503 L526 563 L303 727 L80 563 L80 503 L275 646 C276 565 276 511 276 360 C276 195 276 139 275 57 L80 200 L80 140 L303 -24 L526 140 L526 200 L332 57 C331 140 330 195 330 360 C330 510 331 564 332 646 L332 646 Z " />
<glyph glyph-name="uni2196" unicode="&#x2196;" horiz-adv-x="651" d="M356 379 C250 486 214 522 157 581 C233 590 313 596 412 581 L334 659 L61 617 L19 343 L97 265 C82 364 88 443 96 519 C156 463 194 427 299 322 C432 189 460 158 525 67 L610 152 C519 217 489 246 356 379 L356 379 Z " />
<glyph glyph-name="uni2197" unicode="&#x2197;" horiz-adv-x="651" d="M532 265 L610 343 L568 617 L295 659 L217 581 C316 596 396 590 472 581 C415 522 379 486 273 379 C140 246 110 217 19 152 L104 67 C169 158 197 189 330 322 C435 427 473 463 533 519 C541 443 547 364 532 265 L532 265 Z " />
<glyph glyph-name="uni2198" unicode="&#x2198;" horiz-adv-x="652" d="M533 436 C548 337 542 257 533 181 C474 238 438 274 331 380 C198 513 169 543 104 634 L19 549 C110 484 141 456 274 323 C379 218 415 180 471 120 C395 112 316 106 217 121 L295 43 L569 85 L611 358 L533 436 Z " />
<glyph glyph-name="uni2199" unicode="&#x2199;" horiz-adv-x="652" d="M159 120 C215 180 251 218 356 323 C489 456 520 484 611 549 L526 634 C461 543 432 513 299 380 C192 274 156 238 97 181 C88 257 82 337 97 436 L19 358 L61 85 L335 43 L413 121 C314 106 235 112 159 120 L159 120 Z " />
<glyph glyph-name="fi" unicode="&#xfb01;" horiz-adv-x="574" d="M366 0 L540 0 L497 76 L497 527 L209 527 L201 604 C191 700 220 737 304 737 C367 737 429 709 442 605 L465 603 L512 723 C485 766 400 798 312 798 C213 798 100 732 116 575 L121 527 L23 505 L23 456 L121 456 L121 73 L78 0 L252 0 L209 73 L209 456 L408 456 L409 454 L409 76 L366 0 Z " />
<glyph glyph-name="fl" unicode="&#xfb02;" horiz-adv-x="566" d="M359 0 L533 0 L490 76 L489 693 C434 759 364 798 302 798 C178 798 107 727 115 615 L121 527 L23 505 L23 456 L121 456 L121 73 L78 0 L252 0 L209 73 L209 456 L340 456 L340 527 L205 527 L197 644 C194 700 218 737 294 737 C343 737 390 707 402 595 L402 77 L359 0 Z " />
</font>
</svg>
